<svg width="377" height="98" viewBox="0 0 377 98" fill="none" xmlns="http://www.w3.org/2000/svg">
<g filter="url(#filter0_d_1_221)">
<rect x="7" y="3" width="363" height="84" rx="16" fill="#DFEADE" shape-rendering="crispEdges"/>
<rect x="9" y="5" width="359" height="80" rx="14" stroke="#B4FFA7" stroke-width="4" shape-rendering="crispEdges"/>
<path d="M44.4171 54.24C42.8251 54.24 41.4411 53.88 40.2651 53.16C39.0971 52.432 38.1931 51.404 37.5531 50.076C36.9211 48.748 36.6051 47.18 36.6051 45.372C36.6051 43.532 36.9371 41.944 37.6011 40.608C38.2731 39.264 39.2091 38.228 40.4091 37.5C41.6091 36.772 43.0091 36.408 44.6091 36.408C45.6411 36.408 46.5811 36.572 47.4291 36.9C48.2771 37.228 49.0131 37.676 49.6371 38.244C50.2691 38.812 50.7611 39.456 51.1131 40.176C51.4731 40.888 51.6691 41.628 51.7011 42.396H48.0051C47.9011 41.844 47.6931 41.34 47.3811 40.884C47.0771 40.428 46.6851 40.064 46.2051 39.792C45.7251 39.512 45.1651 39.372 44.5251 39.372C43.7571 39.372 43.0611 39.572 42.4371 39.972C41.8131 40.364 41.3211 40.992 40.9611 41.856C40.6011 42.72 40.4211 43.86 40.4211 45.276C40.4211 46.42 40.5371 47.372 40.7691 48.132C41.0091 48.892 41.3291 49.496 41.7291 49.944C42.1291 50.384 42.5851 50.696 43.0971 50.88C43.6091 51.064 44.1331 51.156 44.6691 51.156C45.1811 51.156 45.6371 51.072 46.0371 50.904C46.4451 50.728 46.7931 50.504 47.0811 50.232C47.3691 49.96 47.5971 49.664 47.7651 49.344C47.9331 49.016 48.0411 48.696 48.0891 48.384L48.2211 47.328H44.6331V44.904L51.8931 44.94V54H49.5051V51.732C49.2091 52.124 48.8411 52.516 48.4011 52.908C47.9691 53.292 47.4291 53.612 46.7811 53.868C46.1411 54.116 45.3531 54.24 44.4171 54.24ZM58.0441 48.6C58.0361 49.232 58.1361 49.784 58.3441 50.256C58.5521 50.72 58.8521 51.08 59.2441 51.336C59.6441 51.584 60.1241 51.708 60.6841 51.708C61.2841 51.708 61.8081 51.58 62.2561 51.324C62.7121 51.068 63.0281 50.648 63.2041 50.064H66.3601C66.2241 50.944 65.8721 51.696 65.3041 52.32C64.7441 52.944 64.0641 53.42 63.2641 53.748C62.4641 54.076 61.6321 54.24 60.7681 54.24C59.5441 54.24 58.4641 53.984 57.5281 53.472C56.6001 52.952 55.8761 52.22 55.3561 51.276C54.8361 50.332 54.5761 49.22 54.5761 47.94C54.5761 46.7 54.8121 45.584 55.2841 44.592C55.7561 43.592 56.4401 42.804 57.3361 42.228C58.2401 41.644 59.3241 41.352 60.5881 41.352C61.8521 41.352 62.9121 41.62 63.7681 42.156C64.6321 42.684 65.2801 43.424 65.7121 44.376C66.1521 45.32 66.3721 46.412 66.3721 47.652V48.6H58.0441ZM58.0321 46.512H63.0961C63.0961 46.016 63.0041 45.56 62.8201 45.144C62.6361 44.728 62.3561 44.4 61.9801 44.16C61.6121 43.92 61.1481 43.8 60.5881 43.8C60.0441 43.8 59.5801 43.932 59.1961 44.196C58.8201 44.452 58.5321 44.788 58.3321 45.204C58.1321 45.62 58.0321 46.056 58.0321 46.512ZM75.9663 44.028H73.2063L73.2303 50.64C73.2303 50.944 73.2663 51.172 73.3383 51.324C73.4183 51.468 73.5383 51.564 73.6983 51.612C73.8663 51.652 74.0783 51.672 74.3343 51.672H76.0023V53.832C75.8423 53.904 75.5903 53.972 75.2463 54.036C74.9103 54.1 74.4383 54.132 73.8303 54.132C72.7423 54.132 71.8983 53.992 71.2983 53.712C70.7063 53.432 70.2943 53.04 70.0623 52.536C69.8303 52.032 69.7143 51.448 69.7143 50.784V44.028H67.6982V41.592H69.8343L70.7103 37.848H73.2063V41.58H75.9663V44.028ZM88.108 54.24C86.444 54.24 85.148 53.668 84.22 52.524C83.292 51.372 82.828 49.772 82.828 47.724C82.828 46.428 83.016 45.304 83.392 44.352C83.768 43.4 84.324 42.664 85.06 42.144C85.796 41.616 86.696 41.352 87.76 41.352C88.208 41.352 88.624 41.404 89.008 41.508C89.4 41.604 89.756 41.74 90.076 41.916C90.396 42.092 90.676 42.296 90.916 42.528C91.156 42.76 91.352 43.008 91.504 43.272V36.168H95.02V54H92.476L92.08 51.456C91.968 51.8 91.812 52.136 91.612 52.464C91.412 52.792 91.156 53.092 90.844 53.364C90.532 53.628 90.148 53.84 89.692 54C89.244 54.16 88.716 54.24 88.108 54.24ZM88.876 51.72C89.756 51.72 90.412 51.412 90.844 50.796C91.284 50.18 91.504 49.14 91.504 47.676C91.496 46.828 91.396 46.124 91.204 45.564C91.012 45.004 90.724 44.588 90.34 44.316C89.964 44.036 89.484 43.896 88.9 43.896C88.14 43.896 87.508 44.188 87.004 44.772C86.5 45.348 86.248 46.316 86.248 47.676C86.248 49.06 86.484 50.08 86.956 50.736C87.428 51.392 88.068 51.72 88.876 51.72ZM101.63 41.592V54H98.2816V41.592H101.63ZM101.666 36.66V39.816H98.2576V36.66H101.666ZM104.875 54V41.592H108.247V44.532C108.447 43.9 108.727 43.348 109.087 42.876C109.455 42.396 109.899 42.024 110.419 41.76C110.939 41.488 111.527 41.352 112.183 41.352C112.295 41.352 112.399 41.36 112.495 41.376C112.599 41.384 112.675 41.4 112.723 41.424V44.76C112.651 44.728 112.563 44.708 112.459 44.7C112.363 44.692 112.275 44.684 112.195 44.676C111.507 44.62 110.919 44.64 110.431 44.736C109.943 44.832 109.547 44.996 109.243 45.228C108.939 45.46 108.719 45.744 108.583 46.08C108.447 46.416 108.379 46.792 108.379 47.208V54H104.875ZM117.458 48.6C117.45 49.232 117.55 49.784 117.758 50.256C117.966 50.72 118.266 51.08 118.658 51.336C119.058 51.584 119.538 51.708 120.098 51.708C120.698 51.708 121.222 51.58 121.67 51.324C122.126 51.068 122.442 50.648 122.618 50.064H125.774C125.638 50.944 125.286 51.696 124.718 52.32C124.158 52.944 123.478 53.42 122.678 53.748C121.878 54.076 121.046 54.24 120.182 54.24C118.958 54.24 117.878 53.984 116.942 53.472C116.014 52.952 115.29 52.22 114.77 51.276C114.25 50.332 113.99 49.22 113.99 47.94C113.99 46.7 114.226 45.584 114.698 44.592C115.17 43.592 115.854 42.804 116.75 42.228C117.654 41.644 118.738 41.352 120.002 41.352C121.266 41.352 122.326 41.62 123.182 42.156C124.046 42.684 124.694 43.424 125.126 44.376C125.566 45.32 125.786 46.412 125.786 47.652V48.6H117.458ZM117.446 46.512H122.51C122.51 46.016 122.418 45.56 122.234 45.144C122.05 44.728 121.77 44.4 121.394 44.16C121.026 43.92 120.562 43.8 120.002 43.8C119.458 43.8 118.994 43.932 118.61 44.196C118.234 44.452 117.946 44.788 117.746 45.204C117.546 45.62 117.446 46.056 117.446 46.512ZM133.535 41.352C134.575 41.352 135.471 41.564 136.223 41.988C136.983 42.412 137.579 42.984 138.011 43.704C138.451 44.424 138.703 45.228 138.767 46.116H135.851C135.795 45.788 135.679 45.464 135.503 45.144C135.327 44.816 135.079 44.548 134.759 44.34C134.439 44.124 134.039 44.016 133.559 44.016C132.743 44.016 132.079 44.332 131.567 44.964C131.063 45.588 130.811 46.54 130.811 47.82C130.811 49.028 131.059 49.988 131.555 50.7C132.051 51.404 132.743 51.756 133.631 51.756C134.103 51.756 134.495 51.64 134.807 51.408C135.127 51.176 135.375 50.9 135.551 50.58C135.727 50.252 135.839 49.948 135.887 49.668H138.731C138.675 50.524 138.427 51.3 137.987 51.996C137.547 52.684 136.947 53.232 136.187 53.64C135.435 54.04 134.551 54.24 133.535 54.24C132.383 54.24 131.355 53.984 130.451 53.472C129.547 52.96 128.835 52.228 128.315 51.276C127.803 50.316 127.547 49.172 127.547 47.844C127.547 46.564 127.795 45.436 128.291 44.46C128.787 43.484 129.483 42.724 130.379 42.18C131.283 41.628 132.335 41.352 133.535 41.352ZM148.341 44.028H145.581L145.605 50.64C145.605 50.944 145.641 51.172 145.713 51.324C145.793 51.468 145.913 51.564 146.073 51.612C146.241 51.652 146.453 51.672 146.709 51.672H148.377V53.832C148.217 53.904 147.965 53.972 147.621 54.036C147.285 54.1 146.813 54.132 146.205 54.132C145.117 54.132 144.273 53.992 143.673 53.712C143.081 53.432 142.669 53.04 142.437 52.536C142.205 52.032 142.089 51.448 142.089 50.784V44.028H140.073V41.592H142.209L143.085 37.848H145.581V41.58H148.341V44.028ZM160.924 54.24C160.06 54.24 159.228 54.1 158.428 53.82C157.628 53.532 156.952 53.084 156.4 52.476C155.848 51.86 155.496 51.064 155.344 50.088H158.38C158.484 50.528 158.672 50.876 158.944 51.132C159.224 51.388 159.54 51.572 159.892 51.684C160.244 51.788 160.58 51.84 160.9 51.84C161.572 51.84 162.112 51.736 162.52 51.528C162.936 51.312 163.144 50.984 163.144 50.544C163.144 50.208 163.02 49.94 162.772 49.74C162.532 49.54 162.132 49.388 161.572 49.284L159.388 48.828C158.292 48.596 157.412 48.204 156.748 47.652C156.084 47.092 155.744 46.3 155.728 45.276C155.728 44.532 155.924 43.864 156.316 43.272C156.716 42.68 157.304 42.212 158.08 41.868C158.856 41.524 159.808 41.352 160.936 41.352C162.464 41.352 163.684 41.688 164.596 42.36C165.516 43.032 165.984 43.98 166 45.204H163.072C162.984 44.724 162.744 44.356 162.352 44.1C161.968 43.836 161.484 43.704 160.9 43.704C160.292 43.704 159.792 43.812 159.4 44.028C159.008 44.244 158.812 44.572 158.812 45.012C158.812 45.34 158.972 45.6 159.292 45.792C159.612 45.976 160.108 46.136 160.78 46.272L162.796 46.728C163.492 46.896 164.056 47.128 164.488 47.424C164.928 47.712 165.268 48.028 165.508 48.372C165.748 48.716 165.912 49.064 166 49.416C166.096 49.76 166.144 50.072 166.144 50.352C166.144 51.176 165.924 51.88 165.484 52.464C165.044 53.04 164.432 53.48 163.648 53.784C162.864 54.088 161.956 54.24 160.924 54.24ZM168.602 54V36.168H172.082V43.38C172.282 43.092 172.534 42.808 172.838 42.528C173.142 42.24 173.522 42 173.978 41.808C174.434 41.616 174.99 41.52 175.646 41.52C176.438 41.52 177.158 41.676 177.806 41.988C178.462 42.292 178.986 42.736 179.378 43.32C179.778 43.904 179.978 44.616 179.978 45.456V54H176.462V45.972C176.462 45.412 176.258 44.984 175.85 44.688C175.45 44.384 174.962 44.232 174.386 44.232C174.01 44.232 173.646 44.3 173.294 44.436C172.942 44.572 172.654 44.78 172.43 45.06C172.214 45.332 172.106 45.672 172.106 46.08V54H168.602ZM186.334 54.24C185.542 54.24 184.83 54.092 184.198 53.796C183.566 53.5 183.066 53.072 182.698 52.512C182.33 51.944 182.146 51.256 182.146 50.448C182.146 49.088 182.654 48.056 183.67 47.352C184.686 46.64 186.29 46.272 188.482 46.248L190.03 46.224V45.48C190.03 44.912 189.862 44.476 189.526 44.172C189.198 43.86 188.686 43.708 187.99 43.716C187.478 43.724 186.99 43.844 186.526 44.076C186.07 44.308 185.758 44.712 185.59 45.288H182.674C182.722 44.392 182.982 43.656 183.454 43.08C183.926 42.496 184.566 42.064 185.374 41.784C186.19 41.496 187.114 41.352 188.146 41.352C189.418 41.352 190.438 41.512 191.206 41.832C191.974 42.144 192.53 42.596 192.874 43.188C193.218 43.772 193.39 44.468 193.39 45.276V54H190.462L190.174 51.864C189.75 52.76 189.218 53.38 188.578 53.724C187.946 54.068 187.198 54.24 186.334 54.24ZM187.51 51.936C187.83 51.936 188.138 51.88 188.434 51.768C188.738 51.648 189.006 51.492 189.238 51.3C189.478 51.1 189.67 50.876 189.814 50.628C189.958 50.38 190.03 50.124 190.03 49.86V48.024L188.77 48.048C188.186 48.056 187.642 48.128 187.138 48.264C186.634 48.392 186.226 48.604 185.914 48.9C185.61 49.196 185.458 49.596 185.458 50.1C185.458 50.676 185.658 51.128 186.058 51.456C186.458 51.776 186.942 51.936 187.51 51.936ZM196.492 54V41.592H199.864V44.532C200.064 43.9 200.344 43.348 200.704 42.876C201.072 42.396 201.516 42.024 202.036 41.76C202.556 41.488 203.144 41.352 203.8 41.352C203.912 41.352 204.016 41.36 204.112 41.376C204.216 41.384 204.292 41.4 204.34 41.424V44.76C204.268 44.728 204.18 44.708 204.076 44.7C203.98 44.692 203.892 44.684 203.812 44.676C203.124 44.62 202.536 44.64 202.048 44.736C201.56 44.832 201.164 44.996 200.86 45.228C200.556 45.46 200.336 45.744 200.2 46.08C200.064 46.416 199.996 46.792 199.996 47.208V54H196.492ZM209.075 48.6C209.067 49.232 209.167 49.784 209.375 50.256C209.583 50.72 209.883 51.08 210.275 51.336C210.675 51.584 211.155 51.708 211.715 51.708C212.315 51.708 212.839 51.58 213.287 51.324C213.743 51.068 214.059 50.648 214.235 50.064H217.391C217.255 50.944 216.903 51.696 216.335 52.32C215.775 52.944 215.095 53.42 214.295 53.748C213.495 54.076 212.663 54.24 211.799 54.24C210.575 54.24 209.495 53.984 208.559 53.472C207.631 52.952 206.907 52.22 206.387 51.276C205.867 50.332 205.607 49.22 205.607 47.94C205.607 46.7 205.843 45.584 206.315 44.592C206.787 43.592 207.471 42.804 208.367 42.228C209.271 41.644 210.355 41.352 211.619 41.352C212.883 41.352 213.943 41.62 214.799 42.156C215.663 42.684 216.311 43.424 216.743 44.376C217.183 45.32 217.403 46.412 217.403 47.652V48.6H209.075ZM209.063 46.512H214.127C214.127 46.016 214.035 45.56 213.851 45.144C213.667 44.728 213.387 44.4 213.011 44.16C212.643 43.92 212.179 43.8 211.619 43.8C211.075 43.8 210.611 43.932 210.227 44.196C209.851 44.452 209.563 44.788 209.363 45.204C209.163 45.62 209.063 46.056 209.063 46.512ZM230.039 54.24C228.823 54.24 227.763 53.98 226.859 53.46C225.963 52.94 225.267 52.204 224.771 51.252C224.283 50.3 224.039 49.172 224.039 47.868C224.039 46.564 224.283 45.424 224.771 44.448C225.267 43.472 225.963 42.712 226.859 42.168C227.763 41.624 228.827 41.352 230.051 41.352C231.275 41.352 232.335 41.62 233.231 42.156C234.127 42.684 234.819 43.436 235.307 44.412C235.795 45.388 236.039 46.54 236.039 47.868C236.039 49.116 235.799 50.22 235.319 51.18C234.847 52.132 234.163 52.88 233.267 53.424C232.379 53.968 231.303 54.24 230.039 54.24ZM230.051 51.636C230.667 51.636 231.163 51.456 231.539 51.096C231.915 50.736 232.187 50.264 232.355 49.68C232.531 49.088 232.619 48.444 232.619 47.748C232.619 47.092 232.539 46.472 232.379 45.888C232.227 45.304 231.963 44.832 231.587 44.472C231.211 44.112 230.699 43.932 230.051 43.932C229.435 43.932 228.935 44.104 228.551 44.448C228.175 44.784 227.899 45.244 227.723 45.828C227.547 46.404 227.459 47.044 227.459 47.748C227.459 48.396 227.539 49.02 227.699 49.62C227.859 50.212 228.127 50.696 228.503 51.072C228.879 51.448 229.395 51.636 230.051 51.636ZM245.595 41.592V44.028H242.979V54H239.475V44.028H237.183V41.592H239.475V39.804C239.475 38.804 239.767 38.028 240.351 37.476C240.943 36.924 241.779 36.648 242.859 36.648H245.703L245.715 38.976H244.083C243.635 38.976 243.327 39.088 243.159 39.312C242.999 39.528 242.919 39.888 242.919 40.392V41.592H245.595ZM252.742 54V41.592H256.114V44.532C256.314 43.9 256.594 43.348 256.954 42.876C257.322 42.396 257.766 42.024 258.286 41.76C258.806 41.488 259.394 41.352 260.05 41.352C260.162 41.352 260.266 41.36 260.362 41.376C260.466 41.384 260.542 41.4 260.59 41.424V44.76C260.518 44.728 260.43 44.708 260.326 44.7C260.23 44.692 260.142 44.684 260.062 44.676C259.374 44.62 258.786 44.64 258.298 44.736C257.81 44.832 257.414 44.996 257.11 45.228C256.806 45.46 256.586 45.744 256.45 46.08C256.314 46.416 256.246 46.792 256.246 47.208V54H252.742ZM265.325 48.6C265.317 49.232 265.417 49.784 265.625 50.256C265.833 50.72 266.133 51.08 266.525 51.336C266.925 51.584 267.405 51.708 267.965 51.708C268.565 51.708 269.089 51.58 269.537 51.324C269.993 51.068 270.309 50.648 270.485 50.064H273.641C273.505 50.944 273.153 51.696 272.585 52.32C272.025 52.944 271.345 53.42 270.545 53.748C269.745 54.076 268.913 54.24 268.049 54.24C266.825 54.24 265.745 53.984 264.809 53.472C263.881 52.952 263.157 52.22 262.637 51.276C262.117 50.332 261.857 49.22 261.857 47.94C261.857 46.7 262.093 45.584 262.565 44.592C263.037 43.592 263.721 42.804 264.617 42.228C265.521 41.644 266.605 41.352 267.869 41.352C269.133 41.352 270.193 41.62 271.049 42.156C271.913 42.684 272.561 43.424 272.993 44.376C273.433 45.32 273.653 46.412 273.653 47.652V48.6H265.325ZM265.313 46.512H270.377C270.377 46.016 270.285 45.56 270.101 45.144C269.917 44.728 269.637 44.4 269.261 44.16C268.893 43.92 268.429 43.8 267.869 43.8C267.325 43.8 266.861 43.932 266.477 44.196C266.101 44.452 265.813 44.788 265.613 45.204C265.413 45.62 265.313 46.056 265.313 46.512ZM286.262 41.592L281.606 54H279.074L274.406 41.592H277.574L280.286 49.5H280.382L283.058 41.592H286.262ZM290.427 48.6C290.419 49.232 290.519 49.784 290.727 50.256C290.935 50.72 291.235 51.08 291.627 51.336C292.027 51.584 292.507 51.708 293.067 51.708C293.667 51.708 294.191 51.58 294.639 51.324C295.095 51.068 295.411 50.648 295.587 50.064H298.743C298.607 50.944 298.255 51.696 297.687 52.32C297.127 52.944 296.447 53.42 295.647 53.748C294.847 54.076 294.015 54.24 293.151 54.24C291.927 54.24 290.847 53.984 289.911 53.472C288.983 52.952 288.259 52.22 287.739 51.276C287.219 50.332 286.959 49.22 286.959 47.94C286.959 46.7 287.195 45.584 287.667 44.592C288.139 43.592 288.823 42.804 289.719 42.228C290.623 41.644 291.707 41.352 292.971 41.352C294.235 41.352 295.295 41.62 296.151 42.156C297.015 42.684 297.663 43.424 298.095 44.376C298.535 45.32 298.755 46.412 298.755 47.652V48.6H290.427ZM290.415 46.512H295.479C295.479 46.016 295.387 45.56 295.203 45.144C295.019 44.728 294.739 44.4 294.363 44.16C293.995 43.92 293.531 43.8 292.971 43.8C292.427 43.8 291.963 43.932 291.579 44.196C291.203 44.452 290.915 44.788 290.715 45.204C290.515 45.62 290.415 46.056 290.415 46.512ZM301.188 54V41.592H304.632V43.344C304.824 43.04 305.072 42.748 305.376 42.468C305.688 42.18 306.08 41.944 306.552 41.76C307.024 41.576 307.584 41.484 308.232 41.484C308.992 41.484 309.7 41.632 310.356 41.928C311.02 42.224 311.556 42.692 311.964 43.332C312.372 43.964 312.576 44.792 312.576 45.816V54H309.072V46.248C309.072 45.576 308.872 45.072 308.472 44.736C308.072 44.4 307.584 44.232 307.008 44.232C306.624 44.232 306.252 44.3 305.892 44.436C305.54 44.572 305.252 44.776 305.028 45.048C304.804 45.32 304.692 45.656 304.692 46.056V54H301.188ZM319.845 54.24C319.269 54.24 318.701 54.152 318.141 53.976C317.589 53.8 317.085 53.54 316.629 53.196C316.173 52.852 315.805 52.428 315.525 51.924C315.253 51.42 315.117 50.836 315.117 50.172V41.592H318.621V49.728C318.621 50.304 318.809 50.776 319.185 51.144C319.561 51.512 320.113 51.696 320.841 51.696C321.529 51.696 322.073 51.52 322.473 51.168C322.881 50.808 323.085 50.308 323.085 49.668V41.592H326.553V54H323.913L323.505 51.54C323.361 52.268 323.089 52.828 322.689 53.22C322.297 53.604 321.845 53.868 321.333 54.012C320.829 54.164 320.333 54.24 319.845 54.24ZM332.286 48.6C332.278 49.232 332.378 49.784 332.586 50.256C332.794 50.72 333.094 51.08 333.486 51.336C333.886 51.584 334.366 51.708 334.926 51.708C335.526 51.708 336.05 51.58 336.498 51.324C336.954 51.068 337.27 50.648 337.446 50.064H340.602C340.466 50.944 340.114 51.696 339.546 52.32C338.986 52.944 338.306 53.42 337.506 53.748C336.706 54.076 335.874 54.24 335.01 54.24C333.786 54.24 332.706 53.984 331.77 53.472C330.842 52.952 330.118 52.22 329.598 51.276C329.078 50.332 328.818 49.22 328.818 47.94C328.818 46.7 329.054 45.584 329.526 44.592C329.998 43.592 330.682 42.804 331.578 42.228C332.482 41.644 333.566 41.352 334.83 41.352C336.094 41.352 337.154 41.62 338.01 42.156C338.874 42.684 339.522 43.424 339.954 44.376C340.394 45.32 340.614 46.412 340.614 47.652V48.6H332.286ZM332.274 46.512H337.338C337.338 46.016 337.246 45.56 337.062 45.144C336.878 44.728 336.598 44.4 336.222 44.16C335.854 43.92 335.39 43.8 334.83 43.8C334.286 43.8 333.822 43.932 333.438 44.196C333.062 44.452 332.774 44.788 332.574 45.204C332.374 45.62 332.274 46.056 332.274 46.512Z" fill="#292929"/>
</g>
<defs>
<filter id="filter0_d_1_221" x="0.3" y="0.3" width="376.4" height="97.4" filterUnits="userSpaceOnUse" color-interpolation-filters="sRGB">
<feFlood flood-opacity="0" result="BackgroundImageFix"/>
<feColorMatrix in="SourceAlpha" type="matrix" values="0 0 0 0 0 0 0 0 0 0 0 0 0 0 0 0 0 0 127 0" result="hardAlpha"/>
<feOffset dy="4"/>
<feGaussianBlur stdDeviation="3.35"/>
<feComposite in2="hardAlpha" operator="out"/>
<feColorMatrix type="matrix" values="0 0 0 0 0 0 0 0 0 0 0 0 0 0 0 0 0 0 0.2 0"/>
<feBlend mode="normal" in2="BackgroundImageFix" result="effect1_dropShadow_1_221"/>
<feBlend mode="normal" in="SourceGraphic" in2="effect1_dropShadow_1_221" result="shape"/>
</filter>
</defs>
</svg>
