<svg width="386" height="98" viewBox="0 0 386 98" fill="none" xmlns="http://www.w3.org/2000/svg">
<g filter="url(#filter0_d_1_223)">
<rect x="7" y="3" width="372" height="84" rx="16" fill="#E3EBF0" shape-rendering="crispEdges"/>
<rect x="9" y="5" width="368" height="80" rx="14" stroke="#A7DEFF" stroke-width="4" shape-rendering="crispEdges"/>
<path d="M43.5147 54.24C42.6587 54.24 41.8187 54.132 40.9947 53.916C40.1707 53.7 39.4187 53.376 38.7387 52.944C38.0587 52.512 37.4947 51.972 37.0467 51.324C36.6067 50.676 36.3427 49.916 36.2547 49.044H39.8427C39.9627 49.572 40.1907 50.016 40.5267 50.376C40.8627 50.736 41.2867 51.012 41.7987 51.204C42.3107 51.396 42.8787 51.492 43.5027 51.492C44.1427 51.492 44.7267 51.412 45.2547 51.252C45.7827 51.092 46.2067 50.852 46.5267 50.532C46.8467 50.204 47.0067 49.796 47.0067 49.308C47.0067 48.868 46.8747 48.508 46.6107 48.228C46.3547 47.948 46.0067 47.72 45.5667 47.544C45.1267 47.368 44.6267 47.224 44.0667 47.112L41.0667 46.5C39.7547 46.252 38.7147 45.732 37.9467 44.94C37.1787 44.14 36.7827 43.076 36.7587 41.748C36.7507 40.66 37.0387 39.72 37.6227 38.928C38.2147 38.128 39.0147 37.512 40.0227 37.08C41.0387 36.648 42.1747 36.432 43.4307 36.432C44.9267 36.432 46.1827 36.668 47.1987 37.14C48.2227 37.604 48.9987 38.236 49.5267 39.036C50.0627 39.828 50.3387 40.712 50.3547 41.688H46.8387C46.7747 41.08 46.5907 40.596 46.2867 40.236C45.9827 39.876 45.5907 39.616 45.1107 39.456C44.6387 39.296 44.0987 39.216 43.4907 39.216C43.0267 39.216 42.6027 39.268 42.2187 39.372C41.8427 39.476 41.5227 39.624 41.2587 39.816C40.9947 40 40.7907 40.22 40.6467 40.476C40.5027 40.732 40.4307 41.02 40.4307 41.34C40.4307 41.844 40.5987 42.252 40.9347 42.564C41.2707 42.876 41.8987 43.132 42.8187 43.332L45.7947 43.944C46.8587 44.152 47.7027 44.46 48.3267 44.868C48.9587 45.276 49.4307 45.736 49.7427 46.248C50.0627 46.76 50.2707 47.284 50.3667 47.82C50.4707 48.348 50.5227 48.836 50.5227 49.284C50.5227 50.22 50.2267 51.064 49.6347 51.816C49.0507 52.56 48.2347 53.152 47.1867 53.592C46.1387 54.024 44.9147 54.24 43.5147 54.24ZM55.9347 48.6C55.9267 49.232 56.0267 49.784 56.2347 50.256C56.4427 50.72 56.7427 51.08 57.1347 51.336C57.5347 51.584 58.0147 51.708 58.5747 51.708C59.1747 51.708 59.6987 51.58 60.1467 51.324C60.6027 51.068 60.9187 50.648 61.0947 50.064H64.2507C64.1147 50.944 63.7627 51.696 63.1947 52.32C62.6347 52.944 61.9547 53.42 61.1547 53.748C60.3547 54.076 59.5227 54.24 58.6587 54.24C57.4347 54.24 56.3547 53.984 55.4187 53.472C54.4907 52.952 53.7667 52.22 53.2467 51.276C52.7267 50.332 52.4667 49.22 52.4667 47.94C52.4667 46.7 52.7027 45.584 53.1747 44.592C53.6467 43.592 54.3307 42.804 55.2267 42.228C56.1307 41.644 57.2147 41.352 58.4787 41.352C59.7427 41.352 60.8027 41.62 61.6587 42.156C62.5227 42.684 63.1707 43.424 63.6027 44.376C64.0427 45.32 64.2627 46.412 64.2627 47.652V48.6H55.9347ZM55.9227 46.512H60.9867C60.9867 46.016 60.8947 45.56 60.7107 45.144C60.5267 44.728 60.2467 44.4 59.8707 44.16C59.5027 43.92 59.0387 43.8 58.4787 43.8C57.9347 43.8 57.4707 43.932 57.0867 44.196C56.7107 44.452 56.4227 44.788 56.2227 45.204C56.0227 45.62 55.9227 46.056 55.9227 46.512ZM70.6553 54.216C69.7433 54.216 69.0193 54.108 68.4833 53.892C67.9473 53.676 67.5513 53.392 67.2953 53.04C67.0393 52.68 66.8753 52.284 66.8033 51.852C66.7313 51.412 66.6953 50.968 66.6953 50.52V36.168H70.1273V50.088C70.1273 50.544 70.2233 50.916 70.4153 51.204C70.6153 51.484 70.9873 51.656 71.5313 51.72L72.1193 51.756V53.916C71.8793 53.996 71.6353 54.064 71.3873 54.12C71.1393 54.184 70.8953 54.216 70.6553 54.216ZM78.1084 54.216C77.1964 54.216 76.4724 54.108 75.9364 53.892C75.4004 53.676 75.0044 53.392 74.7484 53.04C74.4924 52.68 74.3284 52.284 74.2564 51.852C74.1844 51.412 74.1484 50.968 74.1484 50.52V36.168H77.5804V50.088C77.5804 50.544 77.6764 50.916 77.8684 51.204C78.0684 51.484 78.4404 51.656 78.9844 51.72L79.5724 51.756V53.916C79.3324 53.996 79.0884 54.064 78.8404 54.12C78.5924 54.184 78.3484 54.216 78.1084 54.216ZM92.2144 41.352C93.2544 41.352 94.1504 41.564 94.9024 41.988C95.6624 42.412 96.2584 42.984 96.6904 43.704C97.1304 44.424 97.3824 45.228 97.4464 46.116H94.5304C94.4744 45.788 94.3584 45.464 94.1824 45.144C94.0064 44.816 93.7584 44.548 93.4384 44.34C93.1184 44.124 92.7184 44.016 92.2384 44.016C91.4224 44.016 90.7584 44.332 90.2464 44.964C89.7424 45.588 89.4904 46.54 89.4904 47.82C89.4904 49.028 89.7384 49.988 90.2344 50.7C90.7304 51.404 91.4224 51.756 92.3104 51.756C92.7824 51.756 93.1744 51.64 93.4864 51.408C93.8064 51.176 94.0544 50.9 94.2304 50.58C94.4064 50.252 94.5184 49.948 94.5664 49.668H97.4104C97.3544 50.524 97.1064 51.3 96.6664 51.996C96.2264 52.684 95.6264 53.232 94.8664 53.64C94.1144 54.04 93.2304 54.24 92.2144 54.24C91.0624 54.24 90.0344 53.984 89.1304 53.472C88.2264 52.96 87.5144 52.228 86.9944 51.276C86.4824 50.316 86.2264 49.172 86.2264 47.844C86.2264 46.564 86.4744 45.436 86.9704 44.46C87.4664 43.484 88.1624 42.724 89.0584 42.18C89.9624 41.628 91.0144 41.352 92.2144 41.352ZM105.187 54.24C103.971 54.24 102.911 53.98 102.007 53.46C101.111 52.94 100.415 52.204 99.9194 51.252C99.4314 50.3 99.1874 49.172 99.1874 47.868C99.1874 46.564 99.4314 45.424 99.9194 44.448C100.415 43.472 101.111 42.712 102.007 42.168C102.911 41.624 103.975 41.352 105.199 41.352C106.423 41.352 107.483 41.62 108.379 42.156C109.275 42.684 109.967 43.436 110.455 44.412C110.943 45.388 111.187 46.54 111.187 47.868C111.187 49.116 110.947 50.22 110.467 51.18C109.995 52.132 109.311 52.88 108.415 53.424C107.527 53.968 106.451 54.24 105.187 54.24ZM105.199 51.636C105.815 51.636 106.311 51.456 106.687 51.096C107.063 50.736 107.335 50.264 107.503 49.68C107.679 49.088 107.767 48.444 107.767 47.748C107.767 47.092 107.687 46.472 107.527 45.888C107.375 45.304 107.111 44.832 106.735 44.472C106.359 44.112 105.847 43.932 105.199 43.932C104.583 43.932 104.083 44.104 103.699 44.448C103.323 44.784 103.047 45.244 102.871 45.828C102.695 46.404 102.607 47.044 102.607 47.748C102.607 48.396 102.687 49.02 102.847 49.62C103.007 50.212 103.275 50.696 103.651 51.072C104.027 51.448 104.543 51.636 105.199 51.636ZM113.523 54V41.592H116.967V43.344C117.159 43.04 117.407 42.748 117.711 42.468C118.023 42.18 118.415 41.944 118.887 41.76C119.359 41.576 119.919 41.484 120.567 41.484C121.327 41.484 122.035 41.632 122.691 41.928C123.355 42.224 123.891 42.692 124.299 43.332C124.707 43.964 124.911 44.792 124.911 45.816V54H121.407V46.248C121.407 45.576 121.207 45.072 120.807 44.736C120.407 44.4 119.919 44.232 119.343 44.232C118.959 44.232 118.587 44.3 118.227 44.436C117.875 44.572 117.587 44.776 117.363 45.048C117.139 45.32 117.027 45.656 117.027 46.056V54H113.523ZM134.771 44.028H132.011L132.035 50.64C132.035 50.944 132.071 51.172 132.143 51.324C132.223 51.468 132.343 51.564 132.503 51.612C132.671 51.652 132.883 51.672 133.139 51.672H134.807V53.832C134.647 53.904 134.395 53.972 134.051 54.036C133.715 54.1 133.243 54.132 132.635 54.132C131.547 54.132 130.703 53.992 130.103 53.712C129.511 53.432 129.099 53.04 128.867 52.536C128.635 52.032 128.519 51.448 128.519 50.784V44.028H126.503V41.592H128.639L129.515 37.848H132.011V41.58H134.771V44.028ZM139.841 48.6C139.833 49.232 139.933 49.784 140.141 50.256C140.349 50.72 140.649 51.08 141.041 51.336C141.441 51.584 141.921 51.708 142.481 51.708C143.081 51.708 143.605 51.58 144.053 51.324C144.509 51.068 144.825 50.648 145.001 50.064H148.157C148.021 50.944 147.669 51.696 147.101 52.32C146.541 52.944 145.861 53.42 145.061 53.748C144.261 54.076 143.429 54.24 142.565 54.24C141.341 54.24 140.261 53.984 139.325 53.472C138.397 52.952 137.673 52.22 137.153 51.276C136.633 50.332 136.373 49.22 136.373 47.94C136.373 46.7 136.609 45.584 137.081 44.592C137.553 43.592 138.237 42.804 139.133 42.228C140.037 41.644 141.121 41.352 142.385 41.352C143.649 41.352 144.709 41.62 145.565 42.156C146.429 42.684 147.077 43.424 147.509 44.376C147.949 45.32 148.169 46.412 148.169 47.652V48.6H139.841ZM139.829 46.512H144.893C144.893 46.016 144.801 45.56 144.617 45.144C144.433 44.728 144.153 44.4 143.777 44.16C143.409 43.92 142.945 43.8 142.385 43.8C141.841 43.8 141.377 43.932 140.993 44.196C140.617 44.452 140.329 44.788 140.129 45.204C139.929 45.62 139.829 46.056 139.829 46.512ZM150.602 54V41.592H154.046V43.344C154.238 43.04 154.486 42.748 154.79 42.468C155.102 42.18 155.494 41.944 155.966 41.76C156.438 41.576 156.998 41.484 157.646 41.484C158.406 41.484 159.114 41.632 159.77 41.928C160.434 42.224 160.97 42.692 161.378 43.332C161.786 43.964 161.99 44.792 161.99 45.816V54H158.486V46.248C158.486 45.576 158.286 45.072 157.886 44.736C157.486 44.4 156.998 44.232 156.422 44.232C156.038 44.232 155.666 44.3 155.306 44.436C154.954 44.572 154.666 44.776 154.442 45.048C154.218 45.32 154.106 45.656 154.106 46.056V54H150.602ZM171.849 44.028H169.089L169.113 50.64C169.113 50.944 169.149 51.172 169.221 51.324C169.301 51.468 169.421 51.564 169.581 51.612C169.749 51.652 169.961 51.672 170.217 51.672H171.885V53.832C171.725 53.904 171.473 53.972 171.129 54.036C170.793 54.1 170.321 54.132 169.713 54.132C168.625 54.132 167.781 53.992 167.181 53.712C166.589 53.432 166.177 53.04 165.945 52.536C165.713 52.032 165.597 51.448 165.597 50.784V44.028H163.581V41.592H165.717L166.593 37.848H169.089V41.58H171.849V44.028ZM187.013 44.028H184.253L184.277 50.64C184.277 50.944 184.313 51.172 184.385 51.324C184.465 51.468 184.585 51.564 184.745 51.612C184.913 51.652 185.125 51.672 185.381 51.672H187.049V53.832C186.889 53.904 186.637 53.972 186.293 54.036C185.957 54.1 185.485 54.132 184.877 54.132C183.789 54.132 182.945 53.992 182.345 53.712C181.753 53.432 181.341 53.04 181.109 52.536C180.877 52.032 180.761 51.448 180.761 50.784V44.028H178.745V41.592H180.881L181.757 37.848H184.253V41.58H187.013V44.028ZM189.602 54V36.168H193.082V43.38C193.282 43.092 193.534 42.808 193.838 42.528C194.142 42.24 194.522 42 194.978 41.808C195.434 41.616 195.99 41.52 196.646 41.52C197.438 41.52 198.158 41.676 198.806 41.988C199.462 42.292 199.986 42.736 200.378 43.32C200.778 43.904 200.978 44.616 200.978 45.456V54H197.462V45.972C197.462 45.412 197.258 44.984 196.85 44.688C196.45 44.384 195.962 44.232 195.386 44.232C195.01 44.232 194.646 44.3 194.294 44.436C193.942 44.572 193.654 44.78 193.43 45.06C193.214 45.332 193.106 45.672 193.106 46.08V54H189.602ZM203.828 54V41.592H207.2V44.532C207.4 43.9 207.68 43.348 208.04 42.876C208.408 42.396 208.852 42.024 209.372 41.76C209.892 41.488 210.48 41.352 211.136 41.352C211.248 41.352 211.352 41.36 211.448 41.376C211.552 41.384 211.628 41.4 211.676 41.424V44.76C211.604 44.728 211.516 44.708 211.412 44.7C211.316 44.692 211.228 44.684 211.148 44.676C210.46 44.62 209.872 44.64 209.384 44.736C208.896 44.832 208.5 44.996 208.196 45.228C207.892 45.46 207.672 45.744 207.536 46.08C207.4 46.416 207.332 46.792 207.332 47.208V54H203.828ZM218.859 54.24C217.643 54.24 216.583 53.98 215.679 53.46C214.783 52.94 214.087 52.204 213.591 51.252C213.103 50.3 212.859 49.172 212.859 47.868C212.859 46.564 213.103 45.424 213.591 44.448C214.087 43.472 214.783 42.712 215.679 42.168C216.583 41.624 217.647 41.352 218.871 41.352C220.095 41.352 221.155 41.62 222.051 42.156C222.947 42.684 223.639 43.436 224.127 44.412C224.615 45.388 224.859 46.54 224.859 47.868C224.859 49.116 224.619 50.22 224.139 51.18C223.667 52.132 222.983 52.88 222.087 53.424C221.199 53.968 220.123 54.24 218.859 54.24ZM218.871 51.636C219.487 51.636 219.983 51.456 220.359 51.096C220.735 50.736 221.007 50.264 221.175 49.68C221.351 49.088 221.439 48.444 221.439 47.748C221.439 47.092 221.359 46.472 221.199 45.888C221.047 45.304 220.783 44.832 220.407 44.472C220.031 44.112 219.519 43.932 218.871 43.932C218.255 43.932 217.755 44.104 217.371 44.448C216.995 44.784 216.719 45.244 216.543 45.828C216.367 46.404 216.279 47.044 216.279 47.748C216.279 48.396 216.359 49.02 216.519 49.62C216.679 50.212 216.947 50.696 217.323 51.072C217.699 51.448 218.215 51.636 218.871 51.636ZM231.627 54.24C231.051 54.24 230.483 54.152 229.923 53.976C229.371 53.8 228.867 53.54 228.411 53.196C227.955 52.852 227.587 52.428 227.307 51.924C227.035 51.42 226.899 50.836 226.899 50.172V41.592H230.403V49.728C230.403 50.304 230.591 50.776 230.967 51.144C231.343 51.512 231.895 51.696 232.623 51.696C233.311 51.696 233.855 51.52 234.255 51.168C234.663 50.808 234.867 50.308 234.867 49.668V41.592H238.335V54H235.695L235.287 51.54C235.143 52.268 234.871 52.828 234.471 53.22C234.079 53.604 233.627 53.868 233.115 54.012C232.611 54.164 232.115 54.24 231.627 54.24ZM246.842 58.104C244.634 58.104 242.954 57.824 241.802 57.264C240.658 56.704 240.086 55.968 240.086 55.056C240.086 54.632 240.198 54.276 240.422 53.988C240.646 53.7 240.906 53.472 241.202 53.304C241.506 53.128 241.782 52.996 242.03 52.908C242.286 52.812 242.442 52.748 242.498 52.716C242.37 52.644 242.186 52.54 241.946 52.404C241.706 52.26 241.482 52.068 241.274 51.828C241.074 51.58 240.974 51.26 240.974 50.868C240.974 50.428 241.182 50.02 241.598 49.644C242.022 49.268 242.662 49.008 243.518 48.864C242.702 48.48 242.082 47.96 241.658 47.304C241.234 46.648 241.022 45.976 241.022 45.288C241.022 44.472 241.278 43.772 241.79 43.188C242.302 42.604 242.998 42.16 243.878 41.856C244.766 41.552 245.77 41.4 246.89 41.4C247.746 41.4 248.446 41.492 248.99 41.676C249.534 41.852 250.038 42.084 250.502 42.372C250.686 42.3 250.93 42.208 251.234 42.096C251.538 41.976 251.866 41.848 252.218 41.712C252.57 41.568 252.914 41.428 253.25 41.292C253.586 41.148 253.886 41.02 254.15 40.908L254.138 43.62L251.99 43.968C252.078 44.184 252.146 44.416 252.194 44.664C252.242 44.912 252.266 45.116 252.266 45.276C252.266 45.996 252.054 46.668 251.63 47.292C251.214 47.916 250.586 48.42 249.746 48.804C248.914 49.188 247.882 49.38 246.65 49.38C246.498 49.38 246.294 49.376 246.038 49.368C245.79 49.36 245.586 49.348 245.426 49.332C244.954 49.356 244.63 49.416 244.454 49.512C244.278 49.608 244.19 49.72 244.19 49.848C244.19 50.04 244.37 50.168 244.73 50.232C245.09 50.288 245.634 50.34 246.362 50.388C246.618 50.404 246.974 50.424 247.43 50.448C247.886 50.472 248.39 50.504 248.942 50.544C250.462 50.648 251.594 51.024 252.338 51.672C253.09 52.312 253.466 53.12 253.466 54.096C253.466 55.256 252.914 56.212 251.81 56.964C250.714 57.724 249.058 58.104 246.842 58.104ZM247.406 56.148C248.382 56.148 249.078 56.028 249.494 55.788C249.91 55.548 250.118 55.204 250.118 54.756C250.118 54.38 249.958 54.076 249.638 53.844C249.318 53.604 248.85 53.464 248.234 53.424L245.39 53.232C245.022 53.216 244.694 53.272 244.406 53.4C244.126 53.528 243.906 53.704 243.746 53.928C243.594 54.152 243.518 54.392 243.518 54.648C243.518 55.168 243.834 55.548 244.466 55.788C245.098 56.028 246.078 56.148 247.406 56.148ZM246.746 47.424C247.41 47.424 247.942 47.244 248.342 46.884C248.75 46.516 248.954 46.02 248.954 45.396C248.954 44.748 248.75 44.228 248.342 43.836C247.942 43.444 247.41 43.248 246.746 43.248C246.09 43.248 245.554 43.444 245.138 43.836C244.73 44.228 244.526 44.748 244.526 45.396C244.526 46.012 244.722 46.504 245.114 46.872C245.514 47.24 246.058 47.424 246.746 47.424ZM256.164 54V36.168H259.644V43.38C259.844 43.092 260.096 42.808 260.4 42.528C260.704 42.24 261.084 42 261.54 41.808C261.996 41.616 262.552 41.52 263.208 41.52C264 41.52 264.72 41.676 265.368 41.988C266.024 42.292 266.548 42.736 266.94 43.32C267.34 43.904 267.54 44.616 267.54 45.456V54H264.024V45.972C264.024 45.412 263.82 44.984 263.412 44.688C263.012 44.384 262.524 44.232 261.948 44.232C261.572 44.232 261.208 44.3 260.856 44.436C260.504 44.572 260.216 44.78 259.992 45.06C259.776 45.332 259.668 45.672 259.668 46.08V54H256.164ZM282.966 44.028H280.206L280.23 50.64C280.23 50.944 280.266 51.172 280.338 51.324C280.418 51.468 280.538 51.564 280.698 51.612C280.866 51.652 281.078 51.672 281.334 51.672H283.002V53.832C282.842 53.904 282.59 53.972 282.246 54.036C281.91 54.1 281.438 54.132 280.83 54.132C279.742 54.132 278.898 53.992 278.298 53.712C277.706 53.432 277.294 53.04 277.062 52.536C276.83 52.032 276.714 51.448 276.714 50.784V44.028H274.698V41.592H276.834L277.71 37.848H280.206V41.58H282.966V44.028ZM290.484 54.24C289.268 54.24 288.208 53.98 287.304 53.46C286.408 52.94 285.712 52.204 285.216 51.252C284.728 50.3 284.484 49.172 284.484 47.868C284.484 46.564 284.728 45.424 285.216 44.448C285.712 43.472 286.408 42.712 287.304 42.168C288.208 41.624 289.272 41.352 290.496 41.352C291.72 41.352 292.78 41.62 293.676 42.156C294.572 42.684 295.264 43.436 295.752 44.412C296.24 45.388 296.484 46.54 296.484 47.868C296.484 49.116 296.244 50.22 295.764 51.18C295.292 52.132 294.608 52.88 293.712 53.424C292.824 53.968 291.748 54.24 290.484 54.24ZM290.496 51.636C291.112 51.636 291.608 51.456 291.984 51.096C292.36 50.736 292.632 50.264 292.8 49.68C292.976 49.088 293.064 48.444 293.064 47.748C293.064 47.092 292.984 46.472 292.824 45.888C292.672 45.304 292.408 44.832 292.032 44.472C291.656 44.112 291.144 43.932 290.496 43.932C289.88 43.932 289.38 44.104 288.996 44.448C288.62 44.784 288.344 45.244 288.168 45.828C287.992 46.404 287.904 47.044 287.904 47.748C287.904 48.396 287.984 49.02 288.144 49.62C288.304 50.212 288.572 50.696 288.948 51.072C289.324 51.448 289.84 51.636 290.496 51.636ZM310.808 54H307.316L303.968 48.648L302.324 50.4V54H298.82V36.168H302.324V46.74L306.884 41.592H310.652L306.14 46.536L310.808 54ZM315.013 48.6C315.005 49.232 315.105 49.784 315.313 50.256C315.521 50.72 315.821 51.08 316.213 51.336C316.613 51.584 317.093 51.708 317.653 51.708C318.253 51.708 318.777 51.58 319.225 51.324C319.681 51.068 319.997 50.648 320.173 50.064H323.329C323.193 50.944 322.841 51.696 322.273 52.32C321.713 52.944 321.033 53.42 320.233 53.748C319.433 54.076 318.601 54.24 317.737 54.24C316.513 54.24 315.433 53.984 314.497 53.472C313.569 52.952 312.845 52.22 312.325 51.276C311.805 50.332 311.545 49.22 311.545 47.94C311.545 46.7 311.781 45.584 312.253 44.592C312.725 43.592 313.409 42.804 314.305 42.228C315.209 41.644 316.293 41.352 317.557 41.352C318.821 41.352 319.881 41.62 320.737 42.156C321.601 42.684 322.249 43.424 322.681 44.376C323.121 45.32 323.341 46.412 323.341 47.652V48.6H315.013ZM315.001 46.512H320.065C320.065 46.016 319.973 45.56 319.789 45.144C319.605 44.728 319.325 44.4 318.949 44.16C318.581 43.92 318.117 43.8 317.557 43.8C317.013 43.8 316.549 43.932 316.165 44.196C315.789 44.452 315.501 44.788 315.301 45.204C315.101 45.62 315.001 46.056 315.001 46.512ZM325.773 54V41.592H329.217V43.344C329.409 43.04 329.657 42.748 329.961 42.468C330.273 42.18 330.665 41.944 331.137 41.76C331.609 41.576 332.169 41.484 332.817 41.484C333.577 41.484 334.285 41.632 334.941 41.928C335.605 42.224 336.141 42.692 336.549 43.332C336.957 43.964 337.161 44.792 337.161 45.816V54H333.657V46.248C333.657 45.576 333.457 45.072 333.057 44.736C332.657 44.4 332.169 44.232 331.593 44.232C331.209 44.232 330.837 44.3 330.477 44.436C330.125 44.572 329.837 44.776 329.613 45.048C329.389 45.32 329.277 45.656 329.277 46.056V54H325.773ZM344.767 54.24C343.903 54.24 343.071 54.1 342.271 53.82C341.471 53.532 340.795 53.084 340.243 52.476C339.691 51.86 339.339 51.064 339.187 50.088H342.223C342.327 50.528 342.515 50.876 342.787 51.132C343.067 51.388 343.383 51.572 343.735 51.684C344.087 51.788 344.423 51.84 344.743 51.84C345.415 51.84 345.955 51.736 346.363 51.528C346.779 51.312 346.987 50.984 346.987 50.544C346.987 50.208 346.863 49.94 346.615 49.74C346.375 49.54 345.975 49.388 345.415 49.284L343.231 48.828C342.135 48.596 341.255 48.204 340.591 47.652C339.927 47.092 339.587 46.3 339.571 45.276C339.571 44.532 339.767 43.864 340.159 43.272C340.559 42.68 341.147 42.212 341.923 41.868C342.699 41.524 343.651 41.352 344.779 41.352C346.307 41.352 347.527 41.688 348.439 42.36C349.359 43.032 349.827 43.98 349.843 45.204H346.915C346.827 44.724 346.587 44.356 346.195 44.1C345.811 43.836 345.327 43.704 344.743 43.704C344.135 43.704 343.635 43.812 343.243 44.028C342.851 44.244 342.655 44.572 342.655 45.012C342.655 45.34 342.815 45.6 343.135 45.792C343.455 45.976 343.951 46.136 344.623 46.272L346.639 46.728C347.335 46.896 347.899 47.128 348.331 47.424C348.771 47.712 349.111 48.028 349.351 48.372C349.591 48.716 349.755 49.064 349.843 49.416C349.939 49.76 349.987 50.072 349.987 50.352C349.987 51.176 349.767 51.88 349.327 52.464C348.887 53.04 348.275 53.48 347.491 53.784C346.707 54.088 345.799 54.24 344.767 54.24Z" fill="#292929"/>
</g>
<defs>
<filter id="filter0_d_1_223" x="0.3" y="0.3" width="385.4" height="97.4" filterUnits="userSpaceOnUse" color-interpolation-filters="sRGB">
<feFlood flood-opacity="0" result="BackgroundImageFix"/>
<feColorMatrix in="SourceAlpha" type="matrix" values="0 0 0 0 0 0 0 0 0 0 0 0 0 0 0 0 0 0 127 0" result="hardAlpha"/>
<feOffset dy="4"/>
<feGaussianBlur stdDeviation="3.35"/>
<feComposite in2="hardAlpha" operator="out"/>
<feColorMatrix type="matrix" values="0 0 0 0 0 0 0 0 0 0 0 0 0 0 0 0 0 0 0.2 0"/>
<feBlend mode="normal" in2="BackgroundImageFix" result="effect1_dropShadow_1_223"/>
<feBlend mode="normal" in="SourceGraphic" in2="effect1_dropShadow_1_223" result="shape"/>
</filter>
</defs>
</svg>
