<svg width="334" height="234" viewBox="0 0 334 234" fill="none" xmlns="http://www.w3.org/2000/svg">
<g filter="url(#filter0_d_1_303)">
<rect x="7" y="3" width="320" height="60" rx="16" fill="#E3EBF0" shape-rendering="crispEdges"/>
<rect x="8" y="4" width="318" height="58" rx="15" stroke="#A7DEFF" stroke-width="2" shape-rendering="crispEdges"/>
<path d="M42.4289 40.7C41.7156 40.7 41.0156 40.61 40.3289 40.43C39.6422 40.25 39.0156 39.98 38.4489 39.62C37.8822 39.26 37.4122 38.81 37.0389 38.27C36.6722 37.73 36.4522 37.0967 36.3789 36.37H39.3689C39.4689 36.81 39.6589 37.18 39.9389 37.48C40.2189 37.78 40.5722 38.01 40.9989 38.17C41.4256 38.33 41.8989 38.41 42.4189 38.41C42.9522 38.41 43.4389 38.3433 43.8789 38.21C44.3189 38.0767 44.6722 37.8767 44.9389 37.61C45.2056 37.3367 45.3389 36.9967 45.3389 36.59C45.3389 36.2233 45.2289 35.9233 45.0089 35.69C44.7956 35.4567 44.5056 35.2667 44.1389 35.12C43.7722 34.9733 43.3556 34.8533 42.8889 34.76L40.3889 34.25C39.2956 34.0433 38.4289 33.61 37.7889 32.95C37.1489 32.2833 36.8189 31.3967 36.7989 30.29C36.7922 29.3833 37.0322 28.6 37.5189 27.94C38.0122 27.2733 38.6789 26.76 39.5189 26.4C40.3656 26.04 41.3122 25.86 42.3589 25.86C43.6056 25.86 44.6522 26.0567 45.4989 26.45C46.3522 26.8367 46.9989 27.3633 47.4389 28.03C47.8856 28.69 48.1156 29.4267 48.1289 30.24H45.1989C45.1456 29.7333 44.9922 29.33 44.7389 29.03C44.4856 28.73 44.1589 28.5133 43.7589 28.38C43.3656 28.2467 42.9156 28.18 42.4089 28.18C42.0222 28.18 41.6689 28.2233 41.3489 28.31C41.0356 28.3967 40.7689 28.52 40.5489 28.68C40.3289 28.8333 40.1589 29.0167 40.0389 29.23C39.9189 29.4433 39.8589 29.6833 39.8589 29.95C39.8589 30.37 39.9989 30.71 40.2789 30.97C40.5589 31.23 41.0822 31.4433 41.8489 31.61L44.3289 32.12C45.2156 32.2933 45.9189 32.55 46.4389 32.89C46.9656 33.23 47.3589 33.6133 47.6189 34.04C47.8856 34.4667 48.0589 34.9033 48.1389 35.35C48.2256 35.79 48.2689 36.1967 48.2689 36.57C48.2689 37.35 48.0222 38.0533 47.5289 38.68C47.0422 39.3 46.3622 39.7933 45.4889 40.16C44.6156 40.52 43.5956 40.7 42.4289 40.7ZM52.7789 36C52.7722 36.5267 52.8556 36.9867 53.0289 37.38C53.2022 37.7667 53.4522 38.0667 53.7789 38.28C54.1122 38.4867 54.5122 38.59 54.9789 38.59C55.4789 38.59 55.9156 38.4833 56.2889 38.27C56.6689 38.0567 56.9322 37.7067 57.0789 37.22H59.7089C59.5956 37.9533 59.3022 38.58 58.8289 39.1C58.3622 39.62 57.7956 40.0167 57.1289 40.29C56.4622 40.5633 55.7689 40.7 55.0489 40.7C54.0289 40.7 53.1289 40.4867 52.3489 40.06C51.5756 39.6267 50.9722 39.0167 50.5389 38.23C50.1056 37.4433 49.8889 36.5167 49.8889 35.45C49.8889 34.4167 50.0856 33.4867 50.4789 32.66C50.8722 31.8267 51.4422 31.17 52.1889 30.69C52.9422 30.2033 53.8456 29.96 54.8989 29.96C55.9522 29.96 56.8356 30.1833 57.5489 30.63C58.2689 31.07 58.8089 31.6867 59.1689 32.48C59.5356 33.2667 59.7189 34.1767 59.7189 35.21V36H52.7789ZM52.7689 34.26H56.9889C56.9889 33.8467 56.9122 33.4667 56.7589 33.12C56.6056 32.7733 56.3722 32.5 56.0589 32.3C55.7522 32.1 55.3656 32 54.8989 32C54.4456 32 54.0589 32.11 53.7389 32.33C53.4256 32.5433 53.1856 32.8233 53.0189 33.17C52.8522 33.5167 52.7689 33.88 52.7689 34.26ZM65.0461 40.68C64.2861 40.68 63.6828 40.59 63.2361 40.41C62.7894 40.23 62.4594 39.9933 62.2461 39.7C62.0328 39.4 61.8961 39.07 61.8361 38.71C61.7761 38.3433 61.7461 37.9733 61.7461 37.6V25.64H64.6061V37.24C64.6061 37.62 64.6861 37.93 64.8461 38.17C65.0128 38.4033 65.3228 38.5467 65.7761 38.6L66.2661 38.63V40.43C66.0661 40.4967 65.8628 40.5533 65.6561 40.6C65.4494 40.6533 65.2461 40.68 65.0461 40.68ZM71.257 40.68C70.497 40.68 69.8937 40.59 69.447 40.41C69.0004 40.23 68.6704 39.9933 68.457 39.7C68.2437 39.4 68.107 39.07 68.047 38.71C67.987 38.3433 67.957 37.9733 67.957 37.6V25.64H70.817V37.24C70.817 37.62 70.897 37.93 71.057 38.17C71.2237 38.4033 71.5337 38.5467 71.987 38.6L72.477 38.63V40.43C72.277 40.4967 72.0737 40.5533 71.867 40.6C71.6604 40.6533 71.457 40.68 71.257 40.68ZM83.012 29.96C83.8787 29.96 84.6254 30.1367 85.252 30.49C85.8854 30.8433 86.382 31.32 86.742 31.92C87.1087 32.52 87.3187 33.19 87.372 33.93H84.942C84.8954 33.6567 84.7987 33.3867 84.652 33.12C84.5054 32.8467 84.2987 32.6233 84.032 32.45C83.7654 32.27 83.432 32.18 83.032 32.18C82.352 32.18 81.7987 32.4433 81.372 32.97C80.952 33.49 80.742 34.2833 80.742 35.35C80.742 36.3567 80.9487 37.1567 81.362 37.75C81.7754 38.3367 82.352 38.63 83.092 38.63C83.4854 38.63 83.812 38.5333 84.072 38.34C84.3387 38.1467 84.5454 37.9167 84.692 37.65C84.8387 37.3767 84.932 37.1233 84.972 36.89H87.342C87.2954 37.6033 87.0887 38.25 86.722 38.83C86.3554 39.4033 85.8554 39.86 85.222 40.2C84.5954 40.5333 83.8587 40.7 83.012 40.7C82.052 40.7 81.1954 40.4867 80.442 40.06C79.6887 39.6333 79.0954 39.0233 78.662 38.23C78.2354 37.43 78.022 36.4767 78.022 35.37C78.022 34.3033 78.2287 33.3633 78.642 32.55C79.0554 31.7367 79.6354 31.1033 80.382 30.65C81.1354 30.19 82.012 29.96 83.012 29.96ZM93.8228 40.7C92.8095 40.7 91.9261 40.4833 91.1728 40.05C90.4261 39.6167 89.8461 39.0033 89.4328 38.21C89.0261 37.4167 88.8228 36.4767 88.8228 35.39C88.8228 34.3033 89.0261 33.3533 89.4328 32.54C89.8461 31.7267 90.4261 31.0933 91.1728 30.64C91.9261 30.1867 92.8128 29.96 93.8328 29.96C94.8528 29.96 95.7361 30.1833 96.4828 30.63C97.2295 31.07 97.8061 31.6967 98.2128 32.51C98.6195 33.3233 98.8228 34.2833 98.8228 35.39C98.8228 36.43 98.6228 37.35 98.2228 38.15C97.8295 38.9433 97.2595 39.5667 96.5128 40.02C95.7728 40.4733 94.8761 40.7 93.8228 40.7ZM93.8328 38.53C94.3461 38.53 94.7595 38.38 95.0728 38.08C95.3861 37.78 95.6128 37.3867 95.7528 36.9C95.8995 36.4067 95.9728 35.87 95.9728 35.29C95.9728 34.7433 95.9061 34.2267 95.7728 33.74C95.6461 33.2533 95.4261 32.86 95.1128 32.56C94.7995 32.26 94.3728 32.11 93.8328 32.11C93.3195 32.11 92.9028 32.2533 92.5828 32.54C92.2695 32.82 92.0395 33.2033 91.8928 33.69C91.7461 34.17 91.6728 34.7033 91.6728 35.29C91.6728 35.83 91.7395 36.35 91.8728 36.85C92.0061 37.3433 92.2295 37.7467 92.5428 38.06C92.8561 38.3733 93.2861 38.53 93.8328 38.53ZM100.77 40.5V30.16H103.64V31.62C103.8 31.3667 104.006 31.1233 104.26 30.89C104.52 30.65 104.846 30.4533 105.24 30.3C105.633 30.1467 106.1 30.07 106.64 30.07C107.273 30.07 107.863 30.1933 108.41 30.44C108.963 30.6867 109.41 31.0767 109.75 31.61C110.09 32.1367 110.26 32.8267 110.26 33.68V40.5H107.34V34.04C107.34 33.48 107.173 33.06 106.84 32.78C106.506 32.5 106.1 32.36 105.62 32.36C105.3 32.36 104.99 32.4167 104.69 32.53C104.396 32.6433 104.156 32.8133 103.97 33.04C103.783 33.2667 103.69 33.5467 103.69 33.88V40.5H100.77ZM118.476 32.19H116.176L116.196 37.7C116.196 37.9533 116.226 38.1433 116.286 38.27C116.352 38.39 116.452 38.47 116.586 38.51C116.726 38.5433 116.902 38.56 117.116 38.56H118.506V40.36C118.372 40.42 118.162 40.4767 117.876 40.53C117.596 40.5833 117.202 40.61 116.696 40.61C115.789 40.61 115.086 40.4933 114.586 40.26C114.092 40.0267 113.749 39.7 113.556 39.28C113.362 38.86 113.266 38.3733 113.266 37.82V32.19H111.586V30.16H113.366L114.096 27.04H116.176V30.15H118.476V32.19ZM122.701 36C122.694 36.5267 122.777 36.9867 122.951 37.38C123.124 37.7667 123.374 38.0667 123.701 38.28C124.034 38.4867 124.434 38.59 124.901 38.59C125.401 38.59 125.837 38.4833 126.211 38.27C126.591 38.0567 126.854 37.7067 127.001 37.22H129.631C129.517 37.9533 129.224 38.58 128.751 39.1C128.284 39.62 127.717 40.0167 127.051 40.29C126.384 40.5633 125.691 40.7 124.971 40.7C123.951 40.7 123.051 40.4867 122.271 40.06C121.497 39.6267 120.894 39.0167 120.461 38.23C120.027 37.4433 119.811 36.5167 119.811 35.45C119.811 34.4167 120.007 33.4867 120.401 32.66C120.794 31.8267 121.364 31.17 122.111 30.69C122.864 30.2033 123.767 29.96 124.821 29.96C125.874 29.96 126.757 30.1833 127.471 30.63C128.191 31.07 128.731 31.6867 129.091 32.48C129.457 33.2667 129.641 34.1767 129.641 35.21V36H122.701ZM122.691 34.26H126.911C126.911 33.8467 126.834 33.4667 126.681 33.12C126.527 32.7733 126.294 32.5 125.981 32.3C125.674 32.1 125.287 32 124.821 32C124.367 32 123.981 32.11 123.661 32.33C123.347 32.5433 123.107 32.8233 122.941 33.17C122.774 33.5167 122.691 33.88 122.691 34.26ZM131.668 40.5V30.16H134.538V31.62C134.698 31.3667 134.905 31.1233 135.158 30.89C135.418 30.65 135.745 30.4533 136.138 30.3C136.531 30.1467 136.998 30.07 137.538 30.07C138.171 30.07 138.761 30.1933 139.308 30.44C139.861 30.6867 140.308 31.0767 140.648 31.61C140.988 32.1367 141.158 32.8267 141.158 33.68V40.5H138.238V34.04C138.238 33.48 138.071 33.06 137.738 32.78C137.405 32.5 136.998 32.36 136.518 32.36C136.198 32.36 135.888 32.4167 135.588 32.53C135.295 32.6433 135.055 32.8133 134.868 33.04C134.681 33.2667 134.588 33.5467 134.588 33.88V40.5H131.668ZM149.374 32.19H147.074L147.094 37.7C147.094 37.9533 147.124 38.1433 147.184 38.27C147.251 38.39 147.351 38.47 147.484 38.51C147.624 38.5433 147.801 38.56 148.014 38.56H149.404V40.36C149.271 40.42 149.061 40.4767 148.774 40.53C148.494 40.5833 148.101 40.61 147.594 40.61C146.688 40.61 145.984 40.4933 145.484 40.26C144.991 40.0267 144.648 39.7 144.454 39.28C144.261 38.86 144.164 38.3733 144.164 37.82V32.19H142.484V30.16H144.264L144.994 27.04H147.074V30.15H149.374V32.19ZM162.011 32.19H159.711L159.731 37.7C159.731 37.9533 159.761 38.1433 159.821 38.27C159.888 38.39 159.988 38.47 160.121 38.51C160.261 38.5433 160.438 38.56 160.651 38.56H162.041V40.36C161.908 40.42 161.698 40.4767 161.411 40.53C161.131 40.5833 160.738 40.61 160.231 40.61C159.324 40.61 158.621 40.4933 158.121 40.26C157.628 40.0267 157.284 39.7 157.091 39.28C156.898 38.86 156.801 38.3733 156.801 37.82V32.19H155.121V30.16H156.901L157.631 27.04H159.711V30.15H162.011V32.19ZM164.168 40.5V25.64H167.068V31.65C167.235 31.41 167.445 31.1733 167.698 30.94C167.951 30.7 168.268 30.5 168.648 30.34C169.028 30.18 169.491 30.1 170.038 30.1C170.698 30.1 171.298 30.23 171.838 30.49C172.385 30.7433 172.821 31.1133 173.148 31.6C173.481 32.0867 173.648 32.68 173.648 33.38V40.5H170.718V33.81C170.718 33.3433 170.548 32.9867 170.208 32.74C169.875 32.4867 169.468 32.36 168.988 32.36C168.675 32.36 168.371 32.4167 168.078 32.53C167.785 32.6433 167.545 32.8167 167.358 33.05C167.178 33.2767 167.088 33.56 167.088 33.9V40.5H164.168ZM176.023 40.5V30.16H178.833V32.61C179 32.0833 179.233 31.6233 179.533 31.23C179.84 30.83 180.21 30.52 180.643 30.3C181.077 30.0733 181.567 29.96 182.113 29.96C182.207 29.96 182.293 29.9667 182.373 29.98C182.46 29.9867 182.523 30 182.563 30.02V32.8C182.503 32.7733 182.43 32.7567 182.343 32.75C182.263 32.7433 182.19 32.7367 182.123 32.73C181.55 32.6833 181.06 32.7 180.653 32.78C180.247 32.86 179.917 32.9967 179.663 33.19C179.41 33.3833 179.227 33.62 179.113 33.9C179 34.18 178.943 34.4933 178.943 34.84V40.5H176.023ZM188.549 40.7C187.536 40.7 186.653 40.4833 185.899 40.05C185.153 39.6167 184.573 39.0033 184.159 38.21C183.753 37.4167 183.549 36.4767 183.549 35.39C183.549 34.3033 183.753 33.3533 184.159 32.54C184.573 31.7267 185.153 31.0933 185.899 30.64C186.653 30.1867 187.539 29.96 188.559 29.96C189.579 29.96 190.463 30.1833 191.209 30.63C191.956 31.07 192.533 31.6967 192.939 32.51C193.346 33.3233 193.549 34.2833 193.549 35.39C193.549 36.43 193.349 37.35 192.949 38.15C192.556 38.9433 191.986 39.5667 191.239 40.02C190.499 40.4733 189.603 40.7 188.549 40.7ZM188.559 38.53C189.073 38.53 189.486 38.38 189.799 38.08C190.113 37.78 190.339 37.3867 190.479 36.9C190.626 36.4067 190.699 35.87 190.699 35.29C190.699 34.7433 190.633 34.2267 190.499 33.74C190.373 33.2533 190.153 32.86 189.839 32.56C189.526 32.26 189.099 32.11 188.559 32.11C188.046 32.11 187.629 32.2533 187.309 32.54C186.996 32.82 186.766 33.2033 186.619 33.69C186.473 34.17 186.399 34.7033 186.399 35.29C186.399 35.83 186.466 36.35 186.599 36.85C186.733 37.3433 186.956 37.7467 187.269 38.06C187.583 38.3733 188.013 38.53 188.559 38.53ZM199.189 40.7C198.709 40.7 198.236 40.6267 197.769 40.48C197.309 40.3333 196.889 40.1167 196.509 39.83C196.129 39.5433 195.822 39.19 195.589 38.77C195.362 38.35 195.249 37.8633 195.249 37.31V30.16H198.169V36.94C198.169 37.42 198.326 37.8133 198.639 38.12C198.952 38.4267 199.412 38.58 200.019 38.58C200.592 38.58 201.046 38.4333 201.379 38.14C201.719 37.84 201.889 37.4233 201.889 36.89V30.16H204.779V40.5H202.579L202.239 38.45C202.119 39.0567 201.892 39.5233 201.559 39.85C201.232 40.17 200.856 40.39 200.429 40.51C200.009 40.6367 199.596 40.7 199.189 40.7ZM211.868 43.92C210.028 43.92 208.628 43.6867 207.668 43.22C206.715 42.7533 206.238 42.14 206.238 41.38C206.238 41.0267 206.331 40.73 206.518 40.49C206.705 40.25 206.921 40.06 207.168 39.92C207.421 39.7733 207.651 39.6633 207.858 39.59C208.071 39.51 208.201 39.4567 208.248 39.43C208.141 39.37 207.988 39.2833 207.788 39.17C207.588 39.05 207.401 38.89 207.228 38.69C207.061 38.4833 206.978 38.2167 206.978 37.89C206.978 37.5233 207.151 37.1833 207.498 36.87C207.851 36.5567 208.385 36.34 209.098 36.22C208.418 35.9 207.901 35.4667 207.548 34.92C207.195 34.3733 207.018 33.8133 207.018 33.24C207.018 32.56 207.231 31.9767 207.658 31.49C208.085 31.0033 208.665 30.6333 209.398 30.38C210.138 30.1267 210.975 30 211.908 30C212.621 30 213.205 30.0767 213.658 30.23C214.111 30.3767 214.531 30.57 214.918 30.81C215.071 30.75 215.275 30.6733 215.528 30.58C215.781 30.48 216.055 30.3733 216.348 30.26C216.641 30.14 216.928 30.0233 217.208 29.91C217.488 29.79 217.738 29.6833 217.958 29.59L217.948 31.85L216.158 32.14C216.231 32.32 216.288 32.5133 216.328 32.72C216.368 32.9267 216.388 33.0967 216.388 33.23C216.388 33.83 216.211 34.39 215.858 34.91C215.511 35.43 214.988 35.85 214.288 36.17C213.595 36.49 212.735 36.65 211.708 36.65C211.581 36.65 211.411 36.6467 211.198 36.64C210.991 36.6333 210.821 36.6233 210.688 36.61C210.295 36.63 210.025 36.68 209.878 36.76C209.731 36.84 209.658 36.9333 209.658 37.04C209.658 37.2 209.808 37.3067 210.108 37.36C210.408 37.4067 210.861 37.45 211.468 37.49C211.681 37.5033 211.978 37.52 212.358 37.54C212.738 37.56 213.158 37.5867 213.618 37.62C214.885 37.7067 215.828 38.02 216.448 38.56C217.075 39.0933 217.388 39.7667 217.388 40.58C217.388 41.5467 216.928 42.3433 216.008 42.97C215.095 43.6033 213.715 43.92 211.868 43.92ZM212.338 42.29C213.151 42.29 213.731 42.19 214.078 41.99C214.425 41.79 214.598 41.5033 214.598 41.13C214.598 40.8167 214.465 40.5633 214.198 40.37C213.931 40.17 213.541 40.0533 213.028 40.02L210.658 39.86C210.351 39.8467 210.078 39.8933 209.838 40C209.605 40.1067 209.421 40.2533 209.288 40.44C209.161 40.6267 209.098 40.8267 209.098 41.04C209.098 41.4733 209.361 41.79 209.888 41.99C210.415 42.19 211.231 42.29 212.338 42.29ZM211.788 35.02C212.341 35.02 212.785 34.87 213.118 34.57C213.458 34.2633 213.628 33.85 213.628 33.33C213.628 32.79 213.458 32.3567 213.118 32.03C212.785 31.7033 212.341 31.54 211.788 31.54C211.241 31.54 210.795 31.7033 210.448 32.03C210.108 32.3567 209.938 32.79 209.938 33.33C209.938 33.8433 210.101 34.2533 210.428 34.56C210.761 34.8667 211.215 35.02 211.788 35.02ZM219.637 40.5V25.64H222.537V31.65C222.703 31.41 222.913 31.1733 223.167 30.94C223.42 30.7 223.737 30.5 224.117 30.34C224.497 30.18 224.96 30.1 225.507 30.1C226.167 30.1 226.767 30.23 227.307 30.49C227.853 30.7433 228.29 31.1133 228.617 31.6C228.95 32.0867 229.117 32.68 229.117 33.38V40.5H226.187V33.81C226.187 33.3433 226.017 32.9867 225.677 32.74C225.343 32.4867 224.937 32.36 224.457 32.36C224.143 32.36 223.84 32.4167 223.547 32.53C223.253 32.6433 223.013 32.8167 222.827 33.05C222.647 33.2767 222.557 33.56 222.557 33.9V40.5H219.637ZM241.972 32.19H239.672L239.692 37.7C239.692 37.9533 239.722 38.1433 239.782 38.27C239.849 38.39 239.949 38.47 240.082 38.51C240.222 38.5433 240.399 38.56 240.612 38.56H242.002V40.36C241.869 40.42 241.659 40.4767 241.372 40.53C241.092 40.5833 240.699 40.61 240.192 40.61C239.285 40.61 238.582 40.4933 238.082 40.26C237.589 40.0267 237.245 39.7 237.052 39.28C236.859 38.86 236.762 38.3733 236.762 37.82V32.19H235.082V30.16H236.862L237.592 27.04H239.672V30.15H241.972V32.19ZM248.237 40.7C247.224 40.7 246.34 40.4833 245.587 40.05C244.84 39.6167 244.26 39.0033 243.847 38.21C243.44 37.4167 243.237 36.4767 243.237 35.39C243.237 34.3033 243.44 33.3533 243.847 32.54C244.26 31.7267 244.84 31.0933 245.587 30.64C246.34 30.1867 247.227 29.96 248.247 29.96C249.267 29.96 250.15 30.1833 250.897 30.63C251.644 31.07 252.22 31.6967 252.627 32.51C253.034 33.3233 253.237 34.2833 253.237 35.39C253.237 36.43 253.037 37.35 252.637 38.15C252.244 38.9433 251.674 39.5667 250.927 40.02C250.187 40.4733 249.29 40.7 248.237 40.7ZM248.247 38.53C248.76 38.53 249.174 38.38 249.487 38.08C249.8 37.78 250.027 37.3867 250.167 36.9C250.314 36.4067 250.387 35.87 250.387 35.29C250.387 34.7433 250.32 34.2267 250.187 33.74C250.06 33.2533 249.84 32.86 249.527 32.56C249.214 32.26 248.787 32.11 248.247 32.11C247.734 32.11 247.317 32.2533 246.997 32.54C246.684 32.82 246.454 33.2033 246.307 33.69C246.16 34.17 246.087 34.7033 246.087 35.29C246.087 35.83 246.154 36.35 246.287 36.85C246.42 37.3433 246.644 37.7467 246.957 38.06C247.27 38.3733 247.7 38.53 248.247 38.53ZM265.174 40.5H262.264L259.474 36.04L258.104 37.5V40.5H255.184V25.64H258.104V34.45L261.904 30.16H265.044L261.284 34.28L265.174 40.5ZM268.677 36C268.671 36.5267 268.754 36.9867 268.927 37.38C269.101 37.7667 269.351 38.0667 269.677 38.28C270.011 38.4867 270.411 38.59 270.877 38.59C271.377 38.59 271.814 38.4833 272.187 38.27C272.567 38.0567 272.831 37.7067 272.977 37.22H275.607C275.494 37.9533 275.201 38.58 274.727 39.1C274.261 39.62 273.694 40.0167 273.027 40.29C272.361 40.5633 271.667 40.7 270.947 40.7C269.927 40.7 269.027 40.4867 268.247 40.06C267.474 39.6267 266.871 39.0167 266.437 38.23C266.004 37.4433 265.787 36.5167 265.787 35.45C265.787 34.4167 265.984 33.4867 266.377 32.66C266.771 31.8267 267.341 31.17 268.087 30.69C268.841 30.2033 269.744 29.96 270.797 29.96C271.851 29.96 272.734 30.1833 273.447 30.63C274.167 31.07 274.707 31.6867 275.067 32.48C275.434 33.2667 275.617 34.1767 275.617 35.21V36H268.677ZM268.667 34.26H272.887C272.887 33.8467 272.811 33.4667 272.657 33.12C272.504 32.7733 272.271 32.5 271.957 32.3C271.651 32.1 271.264 32 270.797 32C270.344 32 269.957 32.11 269.637 32.33C269.324 32.5433 269.084 32.8233 268.917 33.17C268.751 33.5167 268.667 33.88 268.667 34.26ZM277.645 40.5V30.16H280.515V31.62C280.675 31.3667 280.881 31.1233 281.135 30.89C281.395 30.65 281.721 30.4533 282.115 30.3C282.508 30.1467 282.975 30.07 283.515 30.07C284.148 30.07 284.738 30.1933 285.285 30.44C285.838 30.6867 286.285 31.0767 286.625 31.61C286.965 32.1367 287.135 32.8267 287.135 33.68V40.5H284.215V34.04C284.215 33.48 284.048 33.06 283.715 32.78C283.381 32.5 282.975 32.36 282.495 32.36C282.175 32.36 281.865 32.4167 281.565 32.53C281.271 32.6433 281.031 32.8133 280.845 33.04C280.658 33.2667 280.565 33.5467 280.565 33.88V40.5H277.645ZM293.473 40.7C292.753 40.7 292.059 40.5833 291.393 40.35C290.726 40.11 290.163 39.7367 289.703 39.23C289.243 38.7167 288.949 38.0533 288.823 37.24H291.353C291.439 37.6067 291.596 37.8967 291.823 38.11C292.056 38.3233 292.319 38.4767 292.613 38.57C292.906 38.6567 293.186 38.7 293.453 38.7C294.013 38.7 294.463 38.6133 294.803 38.44C295.149 38.26 295.323 37.9867 295.323 37.62C295.323 37.34 295.219 37.1167 295.013 36.95C294.813 36.7833 294.479 36.6567 294.013 36.57L292.193 36.19C291.279 35.9967 290.546 35.67 289.993 35.21C289.439 34.7433 289.156 34.0833 289.143 33.23C289.143 32.61 289.306 32.0533 289.633 31.56C289.966 31.0667 290.456 30.6767 291.103 30.39C291.749 30.1033 292.543 29.96 293.483 29.96C294.756 29.96 295.773 30.24 296.533 30.8C297.299 31.36 297.689 32.15 297.703 33.17H295.263C295.189 32.77 294.989 32.4633 294.663 32.25C294.343 32.03 293.939 31.92 293.453 31.92C292.946 31.92 292.529 32.01 292.203 32.19C291.876 32.37 291.713 32.6433 291.713 33.01C291.713 33.2833 291.846 33.5 292.113 33.66C292.379 33.8133 292.793 33.9467 293.353 34.06L295.033 34.44C295.613 34.58 296.083 34.7733 296.443 35.02C296.809 35.26 297.093 35.5233 297.293 35.81C297.493 36.0967 297.629 36.3867 297.703 36.68C297.783 36.9667 297.823 37.2267 297.823 37.46C297.823 38.1467 297.639 38.7333 297.273 39.22C296.906 39.7 296.396 40.0667 295.743 40.32C295.089 40.5733 294.333 40.7 293.473 40.7Z" fill="#292929"/>
</g>
<g filter="url(#filter1_d_1_303)">
<rect x="7" y="83" width="320" height="60" rx="16" fill="#F8C7FF" shape-rendering="crispEdges"/>
<rect x="8" y="84" width="318" height="58" rx="15" stroke="#EE6FFF" stroke-width="2" shape-rendering="crispEdges"/>
<path d="M48.12 120.5V106.04H52.36L55.67 116.35L59.01 106.04H63.24V120.5H60.29V109.44L56.81 120.5H54.52L51.06 109.49V120.5H48.12ZM70.2759 120.7C69.2626 120.7 68.3793 120.483 67.6259 120.05C66.8793 119.617 66.2993 119.003 65.8859 118.21C65.4793 117.417 65.2759 116.477 65.2759 115.39C65.2759 114.303 65.4793 113.353 65.8859 112.54C66.2993 111.727 66.8793 111.093 67.6259 110.64C68.3793 110.187 69.2659 109.96 70.2859 109.96C71.3059 109.96 72.1893 110.183 72.9359 110.63C73.6826 111.07 74.2593 111.697 74.6659 112.51C75.0726 113.323 75.2759 114.283 75.2759 115.39C75.2759 116.43 75.0759 117.35 74.6759 118.15C74.2826 118.943 73.7126 119.567 72.9659 120.02C72.2259 120.473 71.3293 120.7 70.2759 120.7ZM70.2859 118.53C70.7993 118.53 71.2126 118.38 71.5259 118.08C71.8393 117.78 72.0659 117.387 72.2059 116.9C72.3526 116.407 72.4259 115.87 72.4259 115.29C72.4259 114.743 72.3593 114.227 72.2259 113.74C72.0993 113.253 71.8793 112.86 71.5659 112.56C71.2526 112.26 70.8259 112.11 70.2859 112.11C69.7726 112.11 69.3559 112.253 69.0359 112.54C68.7226 112.82 68.4926 113.203 68.3459 113.69C68.1993 114.17 68.1259 114.703 68.1259 115.29C68.1259 115.83 68.1926 116.35 68.3259 116.85C68.4593 117.343 68.6826 117.747 68.9959 118.06C69.3093 118.373 69.7393 118.53 70.2859 118.53ZM77.2227 120.5V110.16H80.0927V111.62C80.2527 111.367 80.4593 111.123 80.7127 110.89C80.9727 110.65 81.2993 110.453 81.6927 110.3C82.086 110.147 82.5527 110.07 83.0927 110.07C83.726 110.07 84.316 110.193 84.8627 110.44C85.416 110.687 85.8627 111.077 86.2027 111.61C86.5427 112.137 86.7127 112.827 86.7127 113.68V120.5H83.7927V114.04C83.7927 113.48 83.626 113.06 83.2927 112.78C82.9593 112.5 82.5527 112.36 82.0727 112.36C81.7527 112.36 81.4427 112.417 81.1427 112.53C80.8493 112.643 80.6093 112.813 80.4227 113.04C80.236 113.267 80.1427 113.547 80.1427 113.88V120.5H77.2227ZM91.4781 116C91.4715 116.527 91.5548 116.987 91.7281 117.38C91.9015 117.767 92.1515 118.067 92.4781 118.28C92.8115 118.487 93.2115 118.59 93.6781 118.59C94.1781 118.59 94.6148 118.483 94.9881 118.27C95.3681 118.057 95.6315 117.707 95.7781 117.22H98.4081C98.2948 117.953 98.0015 118.58 97.5281 119.1C97.0615 119.62 96.4948 120.017 95.8281 120.29C95.1615 120.563 94.4681 120.7 93.7481 120.7C92.7281 120.7 91.8281 120.487 91.0481 120.06C90.2748 119.627 89.6715 119.017 89.2381 118.23C88.8048 117.443 88.5881 116.517 88.5881 115.45C88.5881 114.417 88.7848 113.487 89.1781 112.66C89.5715 111.827 90.1415 111.17 90.8881 110.69C91.6415 110.203 92.5448 109.96 93.5981 109.96C94.6515 109.96 95.5348 110.183 96.2481 110.63C96.9681 111.07 97.5081 111.687 97.8681 112.48C98.2348 113.267 98.4181 114.177 98.4181 115.21V116H91.4781ZM91.4681 114.26H95.6881C95.6881 113.847 95.6115 113.467 95.4581 113.12C95.3048 112.773 95.0715 112.5 94.7581 112.3C94.4515 112.1 94.0648 112 93.5981 112C93.1448 112 92.7581 112.11 92.4381 112.33C92.1248 112.543 91.8848 112.823 91.7181 113.17C91.5515 113.517 91.4681 113.88 91.4681 114.26ZM106.413 112.19H104.113L104.133 117.7C104.133 117.953 104.163 118.143 104.223 118.27C104.29 118.39 104.39 118.47 104.523 118.51C104.663 118.543 104.84 118.56 105.053 118.56H106.443V120.36C106.31 120.42 106.1 120.477 105.813 120.53C105.533 120.583 105.14 120.61 104.633 120.61C103.727 120.61 103.023 120.493 102.523 120.26C102.03 120.027 101.687 119.7 101.493 119.28C101.3 118.86 101.203 118.373 101.203 117.82V112.19H99.5233V110.16H101.303L102.033 107.04H104.113V110.15H106.413V112.19ZM111.51 110.16V120.5H108.72V110.16H111.51ZM111.54 106.05V108.68H108.7V106.05H111.54ZM113.536 120.5V118.87L118.636 112.2H113.796V110.16H122.176V111.79L117.066 118.46H122.206V120.5H113.536ZM126.283 116C126.276 116.527 126.359 116.987 126.533 117.38C126.706 117.767 126.956 118.067 127.283 118.28C127.616 118.487 128.016 118.59 128.483 118.59C128.983 118.59 129.419 118.483 129.793 118.27C130.173 118.057 130.436 117.707 130.583 117.22H133.213C133.099 117.953 132.806 118.58 132.333 119.1C131.866 119.62 131.299 120.017 130.633 120.29C129.966 120.563 129.273 120.7 128.553 120.7C127.533 120.7 126.633 120.487 125.853 120.06C125.079 119.627 124.476 119.017 124.043 118.23C123.609 117.443 123.393 116.517 123.393 115.45C123.393 114.417 123.589 113.487 123.983 112.66C124.376 111.827 124.946 111.17 125.693 110.69C126.446 110.203 127.349 109.96 128.403 109.96C129.456 109.96 130.339 110.183 131.053 110.63C131.773 111.07 132.313 111.687 132.673 112.48C133.039 113.267 133.223 114.177 133.223 115.21V116H126.283ZM126.273 114.26H130.493C130.493 113.847 130.416 113.467 130.263 113.12C130.109 112.773 129.876 112.5 129.563 112.3C129.256 112.1 128.869 112 128.403 112C127.949 112 127.563 112.11 127.243 112.33C126.929 112.543 126.689 112.823 126.523 113.17C126.356 113.517 126.273 113.88 126.273 114.26ZM145.671 112.19H143.371L143.391 117.7C143.391 117.953 143.421 118.143 143.481 118.27C143.548 118.39 143.648 118.47 143.781 118.51C143.921 118.543 144.098 118.56 144.311 118.56H145.701V120.36C145.568 120.42 145.358 120.477 145.071 120.53C144.791 120.583 144.398 120.61 143.891 120.61C142.984 120.61 142.281 120.493 141.781 120.26C141.288 120.027 140.944 119.7 140.751 119.28C140.558 118.86 140.461 118.373 140.461 117.82V112.19H138.781V110.16H140.561L141.291 107.04H143.371V110.15H145.671V112.19ZM147.828 120.5V105.64H150.728V111.65C150.895 111.41 151.105 111.173 151.358 110.94C151.611 110.7 151.928 110.5 152.308 110.34C152.688 110.18 153.151 110.1 153.698 110.1C154.358 110.1 154.958 110.23 155.498 110.49C156.045 110.743 156.481 111.113 156.808 111.6C157.141 112.087 157.308 112.68 157.308 113.38V120.5H154.378V113.81C154.378 113.343 154.208 112.987 153.868 112.74C153.535 112.487 153.128 112.36 152.648 112.36C152.335 112.36 152.031 112.417 151.738 112.53C151.445 112.643 151.205 112.817 151.018 113.05C150.838 113.277 150.748 113.56 150.748 113.9V120.5H147.828ZM159.684 120.5V110.16H162.494V112.61C162.66 112.083 162.894 111.623 163.194 111.23C163.5 110.83 163.87 110.52 164.304 110.3C164.737 110.073 165.227 109.96 165.774 109.96C165.867 109.96 165.954 109.967 166.034 109.98C166.12 109.987 166.184 110 166.224 110.02V112.8C166.164 112.773 166.09 112.757 166.004 112.75C165.924 112.743 165.85 112.737 165.784 112.73C165.21 112.683 164.72 112.7 164.314 112.78C163.907 112.86 163.577 112.997 163.324 113.19C163.07 113.383 162.887 113.62 162.774 113.9C162.66 114.18 162.604 114.493 162.604 114.84V120.5H159.684ZM172.21 120.7C171.196 120.7 170.313 120.483 169.56 120.05C168.813 119.617 168.233 119.003 167.82 118.21C167.413 117.417 167.21 116.477 167.21 115.39C167.21 114.303 167.413 113.353 167.82 112.54C168.233 111.727 168.813 111.093 169.56 110.64C170.313 110.187 171.2 109.96 172.22 109.96C173.24 109.96 174.123 110.183 174.87 110.63C175.616 111.07 176.193 111.697 176.6 112.51C177.006 113.323 177.21 114.283 177.21 115.39C177.21 116.43 177.01 117.35 176.61 118.15C176.216 118.943 175.646 119.567 174.9 120.02C174.16 120.473 173.263 120.7 172.21 120.7ZM172.22 118.53C172.733 118.53 173.146 118.38 173.46 118.08C173.773 117.78 174 117.387 174.14 116.9C174.286 116.407 174.36 115.87 174.36 115.29C174.36 114.743 174.293 114.227 174.16 113.74C174.033 113.253 173.813 112.86 173.5 112.56C173.186 112.26 172.76 112.11 172.22 112.11C171.706 112.11 171.29 112.253 170.97 112.54C170.656 112.82 170.426 113.203 170.28 113.69C170.133 114.17 170.06 114.703 170.06 115.29C170.06 115.83 170.126 116.35 170.26 116.85C170.393 117.343 170.616 117.747 170.93 118.06C171.243 118.373 171.673 118.53 172.22 118.53ZM182.849 120.7C182.369 120.7 181.896 120.627 181.429 120.48C180.969 120.333 180.549 120.117 180.169 119.83C179.789 119.543 179.482 119.19 179.249 118.77C179.022 118.35 178.909 117.863 178.909 117.31V110.16H181.829V116.94C181.829 117.42 181.986 117.813 182.299 118.12C182.612 118.427 183.072 118.58 183.679 118.58C184.252 118.58 184.706 118.433 185.039 118.14C185.379 117.84 185.549 117.423 185.549 116.89V110.16H188.439V120.5H186.239L185.899 118.45C185.779 119.057 185.552 119.523 185.219 119.85C184.892 120.17 184.516 120.39 184.089 120.51C183.669 120.637 183.256 120.7 182.849 120.7ZM195.528 123.92C193.688 123.92 192.288 123.687 191.328 123.22C190.375 122.753 189.898 122.14 189.898 121.38C189.898 121.027 189.992 120.73 190.178 120.49C190.365 120.25 190.582 120.06 190.828 119.92C191.082 119.773 191.312 119.663 191.518 119.59C191.732 119.51 191.862 119.457 191.908 119.43C191.802 119.37 191.648 119.283 191.448 119.17C191.248 119.05 191.062 118.89 190.888 118.69C190.722 118.483 190.638 118.217 190.638 117.89C190.638 117.523 190.812 117.183 191.158 116.87C191.512 116.557 192.045 116.34 192.758 116.22C192.078 115.9 191.562 115.467 191.208 114.92C190.855 114.373 190.678 113.813 190.678 113.24C190.678 112.56 190.892 111.977 191.318 111.49C191.745 111.003 192.325 110.633 193.058 110.38C193.798 110.127 194.635 110 195.568 110C196.282 110 196.865 110.077 197.318 110.23C197.772 110.377 198.192 110.57 198.578 110.81C198.732 110.75 198.935 110.673 199.188 110.58C199.442 110.48 199.715 110.373 200.008 110.26C200.302 110.14 200.588 110.023 200.868 109.91C201.148 109.79 201.398 109.683 201.618 109.59L201.608 111.85L199.818 112.14C199.892 112.32 199.948 112.513 199.988 112.72C200.028 112.927 200.048 113.097 200.048 113.23C200.048 113.83 199.872 114.39 199.518 114.91C199.172 115.43 198.648 115.85 197.948 116.17C197.255 116.49 196.395 116.65 195.368 116.65C195.242 116.65 195.072 116.647 194.858 116.64C194.652 116.633 194.482 116.623 194.348 116.61C193.955 116.63 193.685 116.68 193.538 116.76C193.392 116.84 193.318 116.933 193.318 117.04C193.318 117.2 193.468 117.307 193.768 117.36C194.068 117.407 194.522 117.45 195.128 117.49C195.342 117.503 195.638 117.52 196.018 117.54C196.398 117.56 196.818 117.587 197.278 117.62C198.545 117.707 199.488 118.02 200.108 118.56C200.735 119.093 201.048 119.767 201.048 120.58C201.048 121.547 200.588 122.343 199.668 122.97C198.755 123.603 197.375 123.92 195.528 123.92ZM195.998 122.29C196.812 122.29 197.392 122.19 197.738 121.99C198.085 121.79 198.258 121.503 198.258 121.13C198.258 120.817 198.125 120.563 197.858 120.37C197.592 120.17 197.202 120.053 196.688 120.02L194.318 119.86C194.012 119.847 193.738 119.893 193.498 120C193.265 120.107 193.082 120.253 192.948 120.44C192.822 120.627 192.758 120.827 192.758 121.04C192.758 121.473 193.022 121.79 193.548 121.99C194.075 122.19 194.892 122.29 195.998 122.29ZM195.448 115.02C196.002 115.02 196.445 114.87 196.778 114.57C197.118 114.263 197.288 113.85 197.288 113.33C197.288 112.79 197.118 112.357 196.778 112.03C196.445 111.703 196.002 111.54 195.448 111.54C194.902 111.54 194.455 111.703 194.108 112.03C193.768 112.357 193.598 112.79 193.598 113.33C193.598 113.843 193.762 114.253 194.088 114.56C194.422 114.867 194.875 115.02 195.448 115.02ZM203.297 120.5V105.64H206.197V111.65C206.364 111.41 206.574 111.173 206.827 110.94C207.08 110.7 207.397 110.5 207.777 110.34C208.157 110.18 208.62 110.1 209.167 110.1C209.827 110.1 210.427 110.23 210.967 110.49C211.514 110.743 211.95 111.113 212.277 111.6C212.61 112.087 212.777 112.68 212.777 113.38V120.5H209.847V113.81C209.847 113.343 209.677 112.987 209.337 112.74C209.004 112.487 208.597 112.36 208.117 112.36C207.804 112.36 207.5 112.417 207.207 112.53C206.914 112.643 206.674 112.817 206.487 113.05C206.307 113.277 206.217 113.56 206.217 113.9V120.5H203.297ZM225.611 120.7C224.284 120.7 223.131 120.4 222.151 119.8C221.177 119.193 220.424 118.337 219.891 117.23C219.364 116.123 219.101 114.817 219.101 113.31C219.101 111.777 219.377 110.453 219.931 109.34C220.491 108.22 221.271 107.357 222.271 106.75C223.271 106.143 224.437 105.84 225.771 105.84C226.631 105.84 227.414 105.977 228.121 106.25C228.827 106.523 229.441 106.897 229.961 107.37C230.487 107.843 230.897 108.38 231.191 108.98C231.491 109.573 231.654 110.19 231.681 110.83H228.601C228.514 110.37 228.341 109.95 228.081 109.57C227.827 109.19 227.501 108.887 227.101 108.66C226.701 108.427 226.234 108.31 225.701 108.31C225.061 108.31 224.481 108.477 223.961 108.81C223.441 109.137 223.031 109.66 222.731 110.38C222.431 111.1 222.281 112.05 222.281 113.23C222.281 114.183 222.377 114.977 222.571 115.61C222.771 116.243 223.037 116.747 223.371 117.12C223.704 117.487 224.084 117.747 224.511 117.9C224.937 118.053 225.374 118.13 225.821 118.13C226.247 118.13 226.627 118.06 226.961 117.92C227.301 117.773 227.591 117.587 227.831 117.36C228.071 117.133 228.261 116.887 228.401 116.62C228.541 116.347 228.631 116.08 228.671 115.82L228.781 114.94H225.791V112.92L231.841 112.95V120.5H229.851V118.61C229.604 118.937 229.297 119.263 228.931 119.59C228.571 119.91 228.121 120.177 227.581 120.39C227.047 120.597 226.391 120.7 225.611 120.7ZM236.966 116C236.96 116.527 237.043 116.987 237.216 117.38C237.39 117.767 237.64 118.067 237.966 118.28C238.3 118.487 238.7 118.59 239.166 118.59C239.666 118.59 240.103 118.483 240.476 118.27C240.856 118.057 241.12 117.707 241.266 117.22H243.896C243.783 117.953 243.49 118.58 243.016 119.1C242.55 119.62 241.983 120.017 241.316 120.29C240.65 120.563 239.956 120.7 239.236 120.7C238.216 120.7 237.316 120.487 236.536 120.06C235.763 119.627 235.16 119.017 234.726 118.23C234.293 117.443 234.076 116.517 234.076 115.45C234.076 114.417 234.273 113.487 234.666 112.66C235.06 111.827 235.63 111.17 236.376 110.69C237.13 110.203 238.033 109.96 239.086 109.96C240.14 109.96 241.023 110.183 241.736 110.63C242.456 111.07 242.996 111.687 243.356 112.48C243.723 113.267 243.906 114.177 243.906 115.21V116H236.966ZM236.956 114.26H241.176C241.176 113.847 241.1 113.467 240.946 113.12C240.793 112.773 240.56 112.5 240.246 112.3C239.94 112.1 239.553 112 239.086 112C238.633 112 238.246 112.11 237.926 112.33C237.613 112.543 237.373 112.823 237.206 113.17C237.04 113.517 236.956 113.88 236.956 114.26ZM245.934 120.5V110.16H248.804V111.62C248.964 111.367 249.17 111.123 249.424 110.89C249.684 110.65 250.01 110.453 250.404 110.3C250.797 110.147 251.264 110.07 251.804 110.07C252.437 110.07 253.027 110.193 253.574 110.44C254.127 110.687 254.574 111.077 254.914 111.61C255.254 112.137 255.424 112.827 255.424 113.68V120.5H252.504V114.04C252.504 113.48 252.337 113.06 252.004 112.78C251.67 112.5 251.264 112.36 250.784 112.36C250.464 112.36 250.154 112.417 249.854 112.53C249.56 112.643 249.32 112.813 249.134 113.04C248.947 113.267 248.854 113.547 248.854 113.88V120.5H245.934ZM261.327 120.5L266.507 106.04H269.587L274.757 120.5H271.847L270.667 117.15H265.467L264.257 120.5H261.327ZM266.117 114.6H269.967L268.057 108.86L266.117 114.6ZM276.929 106.04H279.839V120.5H276.929V106.04Z" fill="#292929"/>
</g>
<g filter="url(#filter2_d_1_303)">
<rect x="7" y="163" width="320" height="60" rx="16" fill="#DFEADE" shape-rendering="crispEdges"/>
<rect x="8" y="164" width="318" height="58" rx="15" stroke="#B4FFA7" stroke-width="2" shape-rendering="crispEdges"/>
<path d="M46.9309 200.7C45.6043 200.7 44.4509 200.4 43.4709 199.8C42.4976 199.193 41.7443 198.337 41.2109 197.23C40.6843 196.123 40.4209 194.817 40.4209 193.31C40.4209 191.777 40.6976 190.453 41.2509 189.34C41.8109 188.22 42.5909 187.357 43.5909 186.75C44.5909 186.143 45.7576 185.84 47.0909 185.84C47.9509 185.84 48.7343 185.977 49.4409 186.25C50.1476 186.523 50.7609 186.897 51.2809 187.37C51.8076 187.843 52.2176 188.38 52.5109 188.98C52.8109 189.573 52.9743 190.19 53.0009 190.83H49.9209C49.8343 190.37 49.6609 189.95 49.4009 189.57C49.1476 189.19 48.8209 188.887 48.4209 188.66C48.0209 188.427 47.5543 188.31 47.0209 188.31C46.3809 188.31 45.8009 188.477 45.2809 188.81C44.7609 189.137 44.3509 189.66 44.0509 190.38C43.7509 191.1 43.6009 192.05 43.6009 193.23C43.6009 194.183 43.6976 194.977 43.8909 195.61C44.0909 196.243 44.3576 196.747 44.6909 197.12C45.0243 197.487 45.4043 197.747 45.8309 197.9C46.2576 198.053 46.6943 198.13 47.1409 198.13C47.5676 198.13 47.9476 198.06 48.2809 197.92C48.6209 197.773 48.9109 197.587 49.1509 197.36C49.3909 197.133 49.5809 196.887 49.7209 196.62C49.8609 196.347 49.9509 196.08 49.9909 195.82L50.1009 194.94H47.1109V192.92L53.1609 192.95V200.5H51.1709V198.61C50.9243 198.937 50.6176 199.263 50.2509 199.59C49.8909 199.91 49.4409 200.177 48.9009 200.39C48.3676 200.597 47.7109 200.7 46.9309 200.7ZM58.2867 196C58.2801 196.527 58.3634 196.987 58.5367 197.38C58.7101 197.767 58.9601 198.067 59.2867 198.28C59.6201 198.487 60.0201 198.59 60.4867 198.59C60.9867 198.59 61.4234 198.483 61.7967 198.27C62.1767 198.057 62.4401 197.707 62.5867 197.22H65.2167C65.1034 197.953 64.8101 198.58 64.3367 199.1C63.8701 199.62 63.3034 200.017 62.6367 200.29C61.9701 200.563 61.2767 200.7 60.5567 200.7C59.5367 200.7 58.6367 200.487 57.8567 200.06C57.0834 199.627 56.4801 199.017 56.0467 198.23C55.6134 197.443 55.3967 196.517 55.3967 195.45C55.3967 194.417 55.5934 193.487 55.9867 192.66C56.3801 191.827 56.9501 191.17 57.6967 190.69C58.4501 190.203 59.3534 189.96 60.4067 189.96C61.4601 189.96 62.3434 190.183 63.0567 190.63C63.7767 191.07 64.3167 191.687 64.6767 192.48C65.0434 193.267 65.2267 194.177 65.2267 195.21V196H58.2867ZM58.2767 194.26H62.4967C62.4967 193.847 62.4201 193.467 62.2667 193.12C62.1134 192.773 61.8801 192.5 61.5667 192.3C61.2601 192.1 60.8734 192 60.4067 192C59.9534 192 59.5667 192.11 59.2467 192.33C58.9334 192.543 58.6934 192.823 58.5267 193.17C58.3601 193.517 58.2767 193.88 58.2767 194.26ZM73.2219 192.19H70.9219L70.9419 197.7C70.9419 197.953 70.9719 198.143 71.0319 198.27C71.0985 198.39 71.1985 198.47 71.3319 198.51C71.4719 198.543 71.6485 198.56 71.8619 198.56H73.2519V200.36C73.1185 200.42 72.9085 200.477 72.6219 200.53C72.3419 200.583 71.9485 200.61 71.4419 200.61C70.5352 200.61 69.8319 200.493 69.3319 200.26C68.8385 200.027 68.4952 199.7 68.3019 199.28C68.1085 198.86 68.0119 198.373 68.0119 197.82V192.19H66.3319V190.16H68.1119L68.8419 187.04H70.9219V190.15H73.2219V192.19ZM83.34 200.7C81.9533 200.7 80.8733 200.223 80.1 199.27C79.3267 198.31 78.94 196.977 78.94 195.27C78.94 194.19 79.0967 193.253 79.41 192.46C79.7233 191.667 80.1867 191.053 80.8 190.62C81.4133 190.18 82.1633 189.96 83.05 189.96C83.4233 189.96 83.77 190.003 84.09 190.09C84.4167 190.17 84.7133 190.283 84.98 190.43C85.2467 190.577 85.48 190.747 85.68 190.94C85.88 191.133 86.0433 191.34 86.17 191.56V185.64H89.1V200.5H86.98L86.65 198.38C86.5567 198.667 86.4267 198.947 86.26 199.22C86.0933 199.493 85.88 199.743 85.62 199.97C85.36 200.19 85.04 200.367 84.66 200.5C84.2867 200.633 83.8467 200.7 83.34 200.7ZM83.98 198.6C84.7133 198.6 85.26 198.343 85.62 197.83C85.9867 197.317 86.17 196.45 86.17 195.23C86.1633 194.523 86.08 193.937 85.92 193.47C85.76 193.003 85.52 192.657 85.2 192.43C84.8867 192.197 84.4867 192.08 84 192.08C83.3667 192.08 82.84 192.323 82.42 192.81C82 193.29 81.79 194.097 81.79 195.23C81.79 196.383 81.9867 197.233 82.38 197.78C82.7733 198.327 83.3067 198.6 83.98 198.6ZM94.608 190.16V200.5H91.818V190.16H94.608ZM94.638 186.05V188.68H91.798V186.05H94.638ZM97.3125 200.5V190.16H100.123V192.61C100.289 192.083 100.523 191.623 100.823 191.23C101.129 190.83 101.499 190.52 101.933 190.3C102.366 190.073 102.856 189.96 103.403 189.96C103.496 189.96 103.583 189.967 103.663 189.98C103.749 189.987 103.813 190 103.853 190.02V192.8C103.793 192.773 103.719 192.757 103.633 192.75C103.553 192.743 103.479 192.737 103.413 192.73C102.839 192.683 102.349 192.7 101.942 192.78C101.536 192.86 101.206 192.997 100.953 193.19C100.699 193.383 100.516 193.62 100.403 193.9C100.289 194.18 100.233 194.493 100.233 194.84V200.5H97.3125ZM107.798 196C107.792 196.527 107.875 196.987 108.048 197.38C108.222 197.767 108.472 198.067 108.798 198.28C109.132 198.487 109.532 198.59 109.998 198.59C110.498 198.59 110.935 198.483 111.308 198.27C111.688 198.057 111.952 197.707 112.098 197.22H114.728C114.615 197.953 114.322 198.58 113.848 199.1C113.382 199.62 112.815 200.017 112.148 200.29C111.482 200.563 110.788 200.7 110.068 200.7C109.048 200.7 108.148 200.487 107.368 200.06C106.595 199.627 105.992 199.017 105.558 198.23C105.125 197.443 104.908 196.517 104.908 195.45C104.908 194.417 105.105 193.487 105.498 192.66C105.892 191.827 106.462 191.17 107.208 190.69C107.962 190.203 108.865 189.96 109.918 189.96C110.972 189.96 111.855 190.183 112.568 190.63C113.288 191.07 113.828 191.687 114.188 192.48C114.555 193.267 114.738 194.177 114.738 195.21V196H107.798ZM107.788 194.26H112.008C112.008 193.847 111.932 193.467 111.778 193.12C111.625 192.773 111.392 192.5 111.078 192.3C110.772 192.1 110.385 192 109.918 192C109.465 192 109.078 192.11 108.758 192.33C108.445 192.543 108.205 192.823 108.038 193.17C107.872 193.517 107.788 193.88 107.788 194.26ZM121.196 189.96C122.062 189.96 122.809 190.137 123.436 190.49C124.069 190.843 124.566 191.32 124.926 191.92C125.292 192.52 125.502 193.19 125.556 193.93H123.126C123.079 193.657 122.982 193.387 122.836 193.12C122.689 192.847 122.482 192.623 122.216 192.45C121.949 192.27 121.616 192.18 121.216 192.18C120.536 192.18 119.982 192.443 119.556 192.97C119.136 193.49 118.926 194.283 118.926 195.35C118.926 196.357 119.132 197.157 119.546 197.75C119.959 198.337 120.536 198.63 121.276 198.63C121.669 198.63 121.996 198.533 122.256 198.34C122.522 198.147 122.729 197.917 122.876 197.65C123.022 197.377 123.116 197.123 123.156 196.89H125.526C125.479 197.603 125.272 198.25 124.906 198.83C124.539 199.403 124.039 199.86 123.406 200.2C122.779 200.533 122.042 200.7 121.196 200.7C120.236 200.7 119.379 200.487 118.626 200.06C117.872 199.633 117.279 199.023 116.846 198.23C116.419 197.43 116.206 196.477 116.206 195.37C116.206 194.303 116.412 193.363 116.826 192.55C117.239 191.737 117.819 191.103 118.566 190.65C119.319 190.19 120.196 189.96 121.196 189.96ZM133.534 192.19H131.234L131.254 197.7C131.254 197.953 131.284 198.143 131.344 198.27C131.411 198.39 131.511 198.47 131.644 198.51C131.784 198.543 131.961 198.56 132.174 198.56H133.564V200.36C133.431 200.42 133.221 200.477 132.934 200.53C132.654 200.583 132.261 200.61 131.754 200.61C130.848 200.61 130.144 200.493 129.644 200.26C129.151 200.027 128.808 199.7 128.614 199.28C128.421 198.86 128.324 198.373 128.324 197.82V192.19H126.644V190.16H128.424L129.154 187.04H131.234V190.15H133.534V192.19ZM144.02 200.7C143.3 200.7 142.606 200.583 141.94 200.35C141.273 200.11 140.71 199.737 140.25 199.23C139.79 198.717 139.496 198.053 139.37 197.24H141.9C141.986 197.607 142.143 197.897 142.37 198.11C142.603 198.323 142.866 198.477 143.16 198.57C143.453 198.657 143.733 198.7 144 198.7C144.56 198.7 145.01 198.613 145.35 198.44C145.696 198.26 145.87 197.987 145.87 197.62C145.87 197.34 145.766 197.117 145.56 196.95C145.36 196.783 145.026 196.657 144.56 196.57L142.74 196.19C141.826 195.997 141.093 195.67 140.54 195.21C139.986 194.743 139.703 194.083 139.69 193.23C139.69 192.61 139.853 192.053 140.18 191.56C140.513 191.067 141.003 190.677 141.65 190.39C142.296 190.103 143.09 189.96 144.03 189.96C145.303 189.96 146.32 190.24 147.08 190.8C147.846 191.36 148.236 192.15 148.25 193.17H145.81C145.736 192.77 145.536 192.463 145.21 192.25C144.89 192.03 144.486 191.92 144 191.92C143.493 191.92 143.076 192.01 142.75 192.19C142.423 192.37 142.26 192.643 142.26 193.01C142.26 193.283 142.393 193.5 142.66 193.66C142.926 193.813 143.34 193.947 143.9 194.06L145.58 194.44C146.16 194.58 146.63 194.773 146.99 195.02C147.356 195.26 147.64 195.523 147.84 195.81C148.04 196.097 148.176 196.387 148.25 196.68C148.33 196.967 148.37 197.227 148.37 197.46C148.37 198.147 148.186 198.733 147.82 199.22C147.453 199.7 146.943 200.067 146.29 200.32C145.636 200.573 144.88 200.7 144.02 200.7ZM150.418 200.5V185.64H153.318V191.65C153.485 191.41 153.695 191.173 153.948 190.94C154.201 190.7 154.518 190.5 154.898 190.34C155.278 190.18 155.741 190.1 156.288 190.1C156.948 190.1 157.548 190.23 158.088 190.49C158.635 190.743 159.071 191.113 159.398 191.6C159.731 192.087 159.898 192.68 159.898 193.38V200.5H156.968V193.81C156.968 193.343 156.798 192.987 156.458 192.74C156.125 192.487 155.718 192.36 155.238 192.36C154.925 192.36 154.621 192.417 154.328 192.53C154.035 192.643 153.795 192.817 153.608 193.05C153.428 193.277 153.338 193.56 153.338 193.9V200.5H150.418ZM165.195 200.7C164.535 200.7 163.942 200.577 163.415 200.33C162.889 200.083 162.472 199.727 162.165 199.26C161.859 198.787 161.705 198.213 161.705 197.54C161.705 196.407 162.129 195.547 162.975 194.96C163.822 194.367 165.159 194.06 166.985 194.04L168.275 194.02V193.4C168.275 192.927 168.135 192.563 167.855 192.31C167.582 192.05 167.155 191.923 166.575 191.93C166.149 191.937 165.742 192.037 165.355 192.23C164.975 192.423 164.715 192.76 164.575 193.24H162.145C162.185 192.493 162.402 191.88 162.795 191.4C163.189 190.913 163.722 190.553 164.395 190.32C165.075 190.08 165.845 189.96 166.705 189.96C167.765 189.96 168.615 190.093 169.255 190.36C169.895 190.62 170.359 190.997 170.645 191.49C170.932 191.977 171.075 192.557 171.075 193.23V200.5H168.635L168.395 198.72C168.042 199.467 167.599 199.983 167.065 200.27C166.539 200.557 165.915 200.7 165.195 200.7ZM166.175 198.78C166.442 198.78 166.699 198.733 166.945 198.64C167.199 198.54 167.422 198.41 167.615 198.25C167.815 198.083 167.975 197.897 168.095 197.69C168.215 197.483 168.275 197.27 168.275 197.05V195.52L167.225 195.54C166.739 195.547 166.285 195.607 165.865 195.72C165.445 195.827 165.105 196.003 164.845 196.25C164.592 196.497 164.465 196.83 164.465 197.25C164.465 197.73 164.632 198.107 164.965 198.38C165.299 198.647 165.702 198.78 166.175 198.78ZM173.66 200.5V190.16H176.47V192.61C176.637 192.083 176.87 191.623 177.17 191.23C177.477 190.83 177.847 190.52 178.28 190.3C178.713 190.073 179.203 189.96 179.75 189.96C179.843 189.96 179.93 189.967 180.01 189.98C180.097 189.987 180.16 190 180.2 190.02V192.8C180.14 192.773 180.067 192.757 179.98 192.75C179.9 192.743 179.827 192.737 179.76 192.73C179.187 192.683 178.697 192.7 178.29 192.78C177.883 192.86 177.553 192.997 177.3 193.19C177.047 193.383 176.863 193.62 176.75 193.9C176.637 194.18 176.58 194.493 176.58 194.84V200.5H173.66ZM184.146 196C184.139 196.527 184.223 196.987 184.396 197.38C184.569 197.767 184.819 198.067 185.146 198.28C185.479 198.487 185.879 198.59 186.346 198.59C186.846 198.59 187.283 198.483 187.656 198.27C188.036 198.057 188.299 197.707 188.446 197.22H191.076C190.963 197.953 190.669 198.58 190.196 199.1C189.729 199.62 189.163 200.017 188.496 200.29C187.829 200.563 187.136 200.7 186.416 200.7C185.396 200.7 184.496 200.487 183.716 200.06C182.943 199.627 182.339 199.017 181.906 198.23C181.473 197.443 181.256 196.517 181.256 195.45C181.256 194.417 181.453 193.487 181.846 192.66C182.239 191.827 182.809 191.17 183.556 190.69C184.309 190.203 185.213 189.96 186.266 189.96C187.319 189.96 188.203 190.183 188.916 190.63C189.636 191.07 190.176 191.687 190.536 192.48C190.903 193.267 191.086 194.177 191.086 195.21V196H184.146ZM184.136 194.26H188.356C188.356 193.847 188.279 193.467 188.126 193.12C187.973 192.773 187.739 192.5 187.426 192.3C187.119 192.1 186.733 192 186.266 192C185.813 192 185.426 192.11 185.106 192.33C184.793 192.543 184.553 192.823 184.386 193.17C184.219 193.517 184.136 193.88 184.136 194.26ZM201.616 200.7C200.602 200.7 199.719 200.483 198.966 200.05C198.219 199.617 197.639 199.003 197.226 198.21C196.819 197.417 196.616 196.477 196.616 195.39C196.616 194.303 196.819 193.353 197.226 192.54C197.639 191.727 198.219 191.093 198.966 190.64C199.719 190.187 200.606 189.96 201.626 189.96C202.646 189.96 203.529 190.183 204.276 190.63C205.022 191.07 205.599 191.697 206.006 192.51C206.412 193.323 206.616 194.283 206.616 195.39C206.616 196.43 206.416 197.35 206.016 198.15C205.622 198.943 205.052 199.567 204.306 200.02C203.566 200.473 202.669 200.7 201.616 200.7ZM201.626 198.53C202.139 198.53 202.552 198.38 202.866 198.08C203.179 197.78 203.406 197.387 203.546 196.9C203.692 196.407 203.766 195.87 203.766 195.29C203.766 194.743 203.699 194.227 203.566 193.74C203.439 193.253 203.219 192.86 202.906 192.56C202.592 192.26 202.166 192.11 201.626 192.11C201.112 192.11 200.696 192.253 200.376 192.54C200.062 192.82 199.832 193.203 199.686 193.69C199.539 194.17 199.466 194.703 199.466 195.29C199.466 195.83 199.532 196.35 199.666 196.85C199.799 197.343 200.022 197.747 200.336 198.06C200.649 198.373 201.079 198.53 201.626 198.53ZM214.58 190.16V192.19H212.4V200.5H209.48V192.19H207.57V190.16H209.48V188.67C209.48 187.837 209.723 187.19 210.21 186.73C210.703 186.27 211.4 186.04 212.3 186.04H214.67L214.68 187.98H213.32C212.946 187.98 212.69 188.073 212.55 188.26C212.416 188.44 212.35 188.74 212.35 189.16V190.16H214.58ZM220.535 200.5V190.16H223.345V192.61C223.512 192.083 223.745 191.623 224.045 191.23C224.352 190.83 224.722 190.52 225.155 190.3C225.588 190.073 226.078 189.96 226.625 189.96C226.718 189.96 226.805 189.967 226.885 189.98C226.972 189.987 227.035 190 227.075 190.02V192.8C227.015 192.773 226.942 192.757 226.855 192.75C226.775 192.743 226.702 192.737 226.635 192.73C226.062 192.683 225.572 192.7 225.165 192.78C224.758 192.86 224.428 192.997 224.175 193.19C223.922 193.383 223.738 193.62 223.625 193.9C223.512 194.18 223.455 194.493 223.455 194.84V200.5H220.535ZM231.021 196C231.014 196.527 231.098 196.987 231.271 197.38C231.444 197.767 231.694 198.067 232.021 198.28C232.354 198.487 232.754 198.59 233.221 198.59C233.721 198.59 234.158 198.483 234.531 198.27C234.911 198.057 235.174 197.707 235.321 197.22H237.951C237.838 197.953 237.544 198.58 237.071 199.1C236.604 199.62 236.038 200.017 235.371 200.29C234.704 200.563 234.011 200.7 233.291 200.7C232.271 200.7 231.371 200.487 230.591 200.06C229.818 199.627 229.214 199.017 228.781 198.23C228.348 197.443 228.131 196.517 228.131 195.45C228.131 194.417 228.328 193.487 228.721 192.66C229.114 191.827 229.684 191.17 230.431 190.69C231.184 190.203 232.088 189.96 233.141 189.96C234.194 189.96 235.078 190.183 235.791 190.63C236.511 191.07 237.051 191.687 237.411 192.48C237.778 193.267 237.961 194.177 237.961 195.21V196H231.021ZM231.011 194.26H235.231C235.231 193.847 235.154 193.467 235.001 193.12C234.848 192.773 234.614 192.5 234.301 192.3C233.994 192.1 233.608 192 233.141 192C232.688 192 232.301 192.11 231.981 192.33C231.668 192.543 231.428 192.823 231.261 193.17C231.094 193.517 231.011 193.88 231.011 194.26ZM248.468 190.16L244.588 200.5H242.478L238.588 190.16H241.228L243.488 196.75H243.568L245.798 190.16H248.468ZM251.939 196C251.932 196.527 252.016 196.987 252.189 197.38C252.362 197.767 252.612 198.067 252.939 198.28C253.272 198.487 253.672 198.59 254.139 198.59C254.639 198.59 255.076 198.483 255.449 198.27C255.829 198.057 256.092 197.707 256.239 197.22H258.869C258.756 197.953 258.462 198.58 257.989 199.1C257.522 199.62 256.956 200.017 256.289 200.29C255.622 200.563 254.929 200.7 254.209 200.7C253.189 200.7 252.289 200.487 251.509 200.06C250.736 199.627 250.132 199.017 249.699 198.23C249.266 197.443 249.049 196.517 249.049 195.45C249.049 194.417 249.246 193.487 249.639 192.66C250.032 191.827 250.602 191.17 251.349 190.69C252.102 190.203 253.006 189.96 254.059 189.96C255.112 189.96 255.996 190.183 256.709 190.63C257.429 191.07 257.969 191.687 258.329 192.48C258.696 193.267 258.879 194.177 258.879 195.21V196H251.939ZM251.929 194.26H256.149C256.149 193.847 256.072 193.467 255.919 193.12C255.766 192.773 255.532 192.5 255.219 192.3C254.912 192.1 254.526 192 254.059 192C253.606 192 253.219 192.11 252.899 192.33C252.586 192.543 252.346 192.823 252.179 193.17C252.012 193.517 251.929 193.88 251.929 194.26ZM260.906 200.5V190.16H263.776V191.62C263.936 191.367 264.143 191.123 264.396 190.89C264.656 190.65 264.983 190.453 265.376 190.3C265.77 190.147 266.236 190.07 266.776 190.07C267.41 190.07 268 190.193 268.546 190.44C269.1 190.687 269.546 191.077 269.886 191.61C270.226 192.137 270.396 192.827 270.396 193.68V200.5H267.476V194.04C267.476 193.48 267.31 193.06 266.976 192.78C266.643 192.5 266.236 192.36 265.756 192.36C265.436 192.36 265.126 192.417 264.826 192.53C264.533 192.643 264.293 192.813 264.106 193.04C263.92 193.267 263.826 193.547 263.826 193.88V200.5H260.906ZM276.455 200.7C275.975 200.7 275.501 200.627 275.035 200.48C274.575 200.333 274.155 200.117 273.775 199.83C273.395 199.543 273.088 199.19 272.855 198.77C272.628 198.35 272.515 197.863 272.515 197.31V190.16H275.435V196.94C275.435 197.42 275.591 197.813 275.905 198.12C276.218 198.427 276.678 198.58 277.285 198.58C277.858 198.58 278.311 198.433 278.645 198.14C278.985 197.84 279.155 197.423 279.155 196.89V190.16H282.045V200.5H279.845L279.505 198.45C279.385 199.057 279.158 199.523 278.825 199.85C278.498 200.17 278.121 200.39 277.695 200.51C277.275 200.637 276.861 200.7 276.455 200.7ZM286.822 196C286.815 196.527 286.899 196.987 287.072 197.38C287.245 197.767 287.495 198.067 287.822 198.28C288.155 198.487 288.555 198.59 289.022 198.59C289.522 198.59 289.959 198.483 290.332 198.27C290.712 198.057 290.975 197.707 291.122 197.22H293.752C293.639 197.953 293.345 198.58 292.872 199.1C292.405 199.62 291.839 200.017 291.172 200.29C290.505 200.563 289.812 200.7 289.092 200.7C288.072 200.7 287.172 200.487 286.392 200.06C285.619 199.627 285.015 199.017 284.582 198.23C284.149 197.443 283.932 196.517 283.932 195.45C283.932 194.417 284.129 193.487 284.522 192.66C284.915 191.827 285.485 191.17 286.232 190.69C286.985 190.203 287.889 189.96 288.942 189.96C289.995 189.96 290.879 190.183 291.592 190.63C292.312 191.07 292.852 191.687 293.212 192.48C293.579 193.267 293.762 194.177 293.762 195.21V196H286.822ZM286.812 194.26H291.032C291.032 193.847 290.955 193.467 290.802 193.12C290.649 192.773 290.415 192.5 290.102 192.3C289.795 192.1 289.409 192 288.942 192C288.489 192 288.102 192.11 287.782 192.33C287.469 192.543 287.229 192.823 287.062 193.17C286.895 193.517 286.812 193.88 286.812 194.26Z" fill="#292929"/>
</g>
<defs>
<filter id="filter0_d_1_303" x="0.3" y="0.3" width="333.4" height="73.4" filterUnits="userSpaceOnUse" color-interpolation-filters="sRGB">
<feFlood flood-opacity="0" result="BackgroundImageFix"/>
<feColorMatrix in="SourceAlpha" type="matrix" values="0 0 0 0 0 0 0 0 0 0 0 0 0 0 0 0 0 0 127 0" result="hardAlpha"/>
<feOffset dy="4"/>
<feGaussianBlur stdDeviation="3.35"/>
<feComposite in2="hardAlpha" operator="out"/>
<feColorMatrix type="matrix" values="0 0 0 0 0 0 0 0 0 0 0 0 0 0 0 0 0 0 0.2 0"/>
<feBlend mode="normal" in2="BackgroundImageFix" result="effect1_dropShadow_1_303"/>
<feBlend mode="normal" in="SourceGraphic" in2="effect1_dropShadow_1_303" result="shape"/>
</filter>
<filter id="filter1_d_1_303" x="0.3" y="80.3" width="333.4" height="73.4" filterUnits="userSpaceOnUse" color-interpolation-filters="sRGB">
<feFlood flood-opacity="0" result="BackgroundImageFix"/>
<feColorMatrix in="SourceAlpha" type="matrix" values="0 0 0 0 0 0 0 0 0 0 0 0 0 0 0 0 0 0 127 0" result="hardAlpha"/>
<feOffset dy="4"/>
<feGaussianBlur stdDeviation="3.35"/>
<feComposite in2="hardAlpha" operator="out"/>
<feColorMatrix type="matrix" values="0 0 0 0 0 0 0 0 0 0 0 0 0 0 0 0 0 0 0.2 0"/>
<feBlend mode="normal" in2="BackgroundImageFix" result="effect1_dropShadow_1_303"/>
<feBlend mode="normal" in="SourceGraphic" in2="effect1_dropShadow_1_303" result="shape"/>
</filter>
<filter id="filter2_d_1_303" x="0.3" y="160.3" width="333.4" height="73.4" filterUnits="userSpaceOnUse" color-interpolation-filters="sRGB">
<feFlood flood-opacity="0" result="BackgroundImageFix"/>
<feColorMatrix in="SourceAlpha" type="matrix" values="0 0 0 0 0 0 0 0 0 0 0 0 0 0 0 0 0 0 127 0" result="hardAlpha"/>
<feOffset dy="4"/>
<feGaussianBlur stdDeviation="3.35"/>
<feComposite in2="hardAlpha" operator="out"/>
<feColorMatrix type="matrix" values="0 0 0 0 0 0 0 0 0 0 0 0 0 0 0 0 0 0 0.2 0"/>
<feBlend mode="normal" in2="BackgroundImageFix" result="effect1_dropShadow_1_303"/>
<feBlend mode="normal" in="SourceGraphic" in2="effect1_dropShadow_1_303" result="shape"/>
</filter>
</defs>
</svg>
