<svg width="357" height="98" viewBox="0 0 357 98" fill="none" xmlns="http://www.w3.org/2000/svg">
<g filter="url(#filter0_d_1_225)">
<rect x="7" y="3" width="343" height="84" rx="16" fill="#F8C7FF" shape-rendering="crispEdges"/>
<rect x="9" y="5" width="339" height="80" rx="14" stroke="#EE6FFF" stroke-width="4" shape-rendering="crispEdges"/>
<path d="M36.944 54V36.648H42.032L46.004 49.02L50.012 36.648H55.088V54H51.548V40.728L47.372 54H44.624L40.472 40.788V54H36.944ZM63.5311 54.24C62.3151 54.24 61.2551 53.98 60.3511 53.46C59.4551 52.94 58.7591 52.204 58.2631 51.252C57.7751 50.3 57.5311 49.172 57.5311 47.868C57.5311 46.564 57.7751 45.424 58.2631 44.448C58.7591 43.472 59.4551 42.712 60.3511 42.168C61.2551 41.624 62.3191 41.352 63.5431 41.352C64.7671 41.352 65.8271 41.62 66.7231 42.156C67.6191 42.684 68.3111 43.436 68.7991 44.412C69.2871 45.388 69.5311 46.54 69.5311 47.868C69.5311 49.116 69.2911 50.22 68.8111 51.18C68.3391 52.132 67.6551 52.88 66.7591 53.424C65.8711 53.968 64.7951 54.24 63.5311 54.24ZM63.5431 51.636C64.1591 51.636 64.6551 51.456 65.0311 51.096C65.4071 50.736 65.6791 50.264 65.8471 49.68C66.0231 49.088 66.1111 48.444 66.1111 47.748C66.1111 47.092 66.0311 46.472 65.8711 45.888C65.7191 45.304 65.4551 44.832 65.0791 44.472C64.7031 44.112 64.1911 43.932 63.5431 43.932C62.9271 43.932 62.4271 44.104 62.0431 44.448C61.6671 44.784 61.3911 45.244 61.2151 45.828C61.0391 46.404 60.9511 47.044 60.9511 47.748C60.9511 48.396 61.0311 49.02 61.1911 49.62C61.3511 50.212 61.6191 50.696 61.9951 51.072C62.3711 51.448 62.8871 51.636 63.5431 51.636ZM71.8672 54V41.592H75.3112V43.344C75.5032 43.04 75.7512 42.748 76.0552 42.468C76.3672 42.18 76.7592 41.944 77.2312 41.76C77.7032 41.576 78.2632 41.484 78.9112 41.484C79.6712 41.484 80.3792 41.632 81.0352 41.928C81.6992 42.224 82.2352 42.692 82.6432 43.332C83.0512 43.964 83.2552 44.792 83.2552 45.816V54H79.7512V46.248C79.7512 45.576 79.5512 45.072 79.1512 44.736C78.7512 44.4 78.2632 44.232 77.6872 44.232C77.3032 44.232 76.9312 44.3 76.5712 44.436C76.2192 44.572 75.9312 44.776 75.7072 45.048C75.4832 45.32 75.3712 45.656 75.3712 46.056V54H71.8672ZM88.9738 48.6C88.9658 49.232 89.0658 49.784 89.2738 50.256C89.4818 50.72 89.7818 51.08 90.1738 51.336C90.5738 51.584 91.0538 51.708 91.6138 51.708C92.2138 51.708 92.7378 51.58 93.1858 51.324C93.6418 51.068 93.9578 50.648 94.1338 50.064H97.2898C97.1538 50.944 96.8018 51.696 96.2338 52.32C95.6738 52.944 94.9938 53.42 94.1938 53.748C93.3938 54.076 92.5618 54.24 91.6978 54.24C90.4738 54.24 89.3938 53.984 88.4578 53.472C87.5298 52.952 86.8058 52.22 86.2858 51.276C85.7658 50.332 85.5058 49.22 85.5058 47.94C85.5058 46.7 85.7418 45.584 86.2138 44.592C86.6858 43.592 87.3698 42.804 88.2658 42.228C89.1698 41.644 90.2538 41.352 91.5178 41.352C92.7818 41.352 93.8418 41.62 94.6978 42.156C95.5618 42.684 96.2098 43.424 96.6418 44.376C97.0818 45.32 97.3018 46.412 97.3018 47.652V48.6H88.9738ZM88.9618 46.512H94.0258C94.0258 46.016 93.9338 45.56 93.7498 45.144C93.5658 44.728 93.2858 44.4 92.9098 44.16C92.5418 43.92 92.0778 43.8 91.5178 43.8C90.9738 43.8 90.5098 43.932 90.1258 44.196C89.7498 44.452 89.4618 44.788 89.2618 45.204C89.0618 45.62 88.9618 46.056 88.9618 46.512ZM106.896 44.028H104.136L104.16 50.64C104.16 50.944 104.196 51.172 104.268 51.324C104.348 51.468 104.468 51.564 104.628 51.612C104.796 51.652 105.008 51.672 105.264 51.672H106.932V53.832C106.772 53.904 106.52 53.972 106.176 54.036C105.84 54.1 105.368 54.132 104.76 54.132C103.672 54.132 102.828 53.992 102.228 53.712C101.636 53.432 101.224 53.04 100.992 52.536C100.76 52.032 100.644 51.448 100.644 50.784V44.028H98.6279V41.592H100.764L101.64 37.848H104.136V41.58H106.896V44.028ZM113.012 41.592V54H109.664V41.592H113.012ZM113.048 36.66V39.816H109.64V36.66H113.048ZM115.444 54V52.044L121.564 44.04H115.756V41.592H125.812V43.548L119.68 51.552H125.848V54H115.444ZM130.739 48.6C130.731 49.232 130.831 49.784 131.039 50.256C131.247 50.72 131.547 51.08 131.939 51.336C132.339 51.584 132.819 51.708 133.379 51.708C133.979 51.708 134.503 51.58 134.951 51.324C135.407 51.068 135.723 50.648 135.899 50.064H139.055C138.919 50.944 138.567 51.696 137.999 52.32C137.439 52.944 136.759 53.42 135.959 53.748C135.159 54.076 134.327 54.24 133.463 54.24C132.239 54.24 131.159 53.984 130.223 53.472C129.295 52.952 128.571 52.22 128.051 51.276C127.531 50.332 127.271 49.22 127.271 47.94C127.271 46.7 127.507 45.584 127.979 44.592C128.451 43.592 129.135 42.804 130.031 42.228C130.935 41.644 132.019 41.352 133.283 41.352C134.547 41.352 135.607 41.62 136.463 42.156C137.327 42.684 137.975 43.424 138.407 44.376C138.847 45.32 139.067 46.412 139.067 47.652V48.6H130.739ZM130.727 46.512H135.791C135.791 46.016 135.699 45.56 135.515 45.144C135.331 44.728 135.051 44.4 134.675 44.16C134.307 43.92 133.843 43.8 133.283 43.8C132.739 43.8 132.275 43.932 131.891 44.196C131.515 44.452 131.227 44.788 131.027 45.204C130.827 45.62 130.727 46.056 130.727 46.512ZM154.005 44.028H151.245L151.269 50.64C151.269 50.944 151.305 51.172 151.377 51.324C151.457 51.468 151.577 51.564 151.737 51.612C151.905 51.652 152.117 51.672 152.373 51.672H154.041V53.832C153.881 53.904 153.629 53.972 153.285 54.036C152.949 54.1 152.477 54.132 151.869 54.132C150.781 54.132 149.937 53.992 149.337 53.712C148.745 53.432 148.333 53.04 148.101 52.536C147.869 52.032 147.753 51.448 147.753 50.784V44.028H145.737V41.592H147.873L148.749 37.848H151.245V41.58H154.005V44.028ZM156.594 54V36.168H160.074V43.38C160.274 43.092 160.526 42.808 160.83 42.528C161.134 42.24 161.514 42 161.97 41.808C162.426 41.616 162.982 41.52 163.638 41.52C164.43 41.52 165.15 41.676 165.798 41.988C166.454 42.292 166.978 42.736 167.37 43.32C167.77 43.904 167.97 44.616 167.97 45.456V54H164.454V45.972C164.454 45.412 164.25 44.984 163.842 44.688C163.442 44.384 162.954 44.232 162.378 44.232C162.002 44.232 161.638 44.3 161.286 44.436C160.934 44.572 160.646 44.78 160.422 45.06C160.206 45.332 160.098 45.672 160.098 46.08V54H156.594ZM170.82 54V41.592H174.192V44.532C174.392 43.9 174.672 43.348 175.032 42.876C175.4 42.396 175.844 42.024 176.364 41.76C176.884 41.488 177.472 41.352 178.128 41.352C178.24 41.352 178.344 41.36 178.44 41.376C178.544 41.384 178.62 41.4 178.668 41.424V44.76C178.596 44.728 178.508 44.708 178.404 44.7C178.308 44.692 178.22 44.684 178.14 44.676C177.452 44.62 176.864 44.64 176.376 44.736C175.888 44.832 175.492 44.996 175.188 45.228C174.884 45.46 174.664 45.744 174.528 46.08C174.392 46.416 174.324 46.792 174.324 47.208V54H170.82ZM185.851 54.24C184.635 54.24 183.575 53.98 182.671 53.46C181.775 52.94 181.079 52.204 180.583 51.252C180.095 50.3 179.851 49.172 179.851 47.868C179.851 46.564 180.095 45.424 180.583 44.448C181.079 43.472 181.775 42.712 182.671 42.168C183.575 41.624 184.639 41.352 185.863 41.352C187.087 41.352 188.147 41.62 189.043 42.156C189.939 42.684 190.631 43.436 191.119 44.412C191.607 45.388 191.851 46.54 191.851 47.868C191.851 49.116 191.611 50.22 191.131 51.18C190.659 52.132 189.975 52.88 189.079 53.424C188.191 53.968 187.115 54.24 185.851 54.24ZM185.863 51.636C186.479 51.636 186.975 51.456 187.351 51.096C187.727 50.736 187.999 50.264 188.167 49.68C188.343 49.088 188.431 48.444 188.431 47.748C188.431 47.092 188.351 46.472 188.191 45.888C188.039 45.304 187.775 44.832 187.399 44.472C187.023 44.112 186.511 43.932 185.863 43.932C185.247 43.932 184.747 44.104 184.363 44.448C183.987 44.784 183.711 45.244 183.535 45.828C183.359 46.404 183.271 47.044 183.271 47.748C183.271 48.396 183.351 49.02 183.511 49.62C183.671 50.212 183.939 50.696 184.315 51.072C184.691 51.448 185.207 51.636 185.863 51.636ZM198.619 54.24C198.043 54.24 197.475 54.152 196.915 53.976C196.363 53.8 195.859 53.54 195.403 53.196C194.947 52.852 194.579 52.428 194.299 51.924C194.027 51.42 193.891 50.836 193.891 50.172V41.592H197.395V49.728C197.395 50.304 197.583 50.776 197.959 51.144C198.335 51.512 198.887 51.696 199.615 51.696C200.303 51.696 200.847 51.52 201.247 51.168C201.655 50.808 201.859 50.308 201.859 49.668V41.592H205.327V54H202.687L202.279 51.54C202.135 52.268 201.863 52.828 201.463 53.22C201.071 53.604 200.619 53.868 200.107 54.012C199.603 54.164 199.107 54.24 198.619 54.24ZM213.834 58.104C211.626 58.104 209.946 57.824 208.794 57.264C207.65 56.704 207.078 55.968 207.078 55.056C207.078 54.632 207.19 54.276 207.414 53.988C207.638 53.7 207.898 53.472 208.194 53.304C208.498 53.128 208.774 52.996 209.022 52.908C209.278 52.812 209.434 52.748 209.49 52.716C209.362 52.644 209.178 52.54 208.938 52.404C208.698 52.26 208.474 52.068 208.266 51.828C208.066 51.58 207.966 51.26 207.966 50.868C207.966 50.428 208.174 50.02 208.59 49.644C209.014 49.268 209.654 49.008 210.51 48.864C209.694 48.48 209.074 47.96 208.65 47.304C208.226 46.648 208.014 45.976 208.014 45.288C208.014 44.472 208.27 43.772 208.782 43.188C209.294 42.604 209.99 42.16 210.87 41.856C211.758 41.552 212.762 41.4 213.882 41.4C214.738 41.4 215.438 41.492 215.982 41.676C216.526 41.852 217.03 42.084 217.494 42.372C217.678 42.3 217.922 42.208 218.226 42.096C218.53 41.976 218.858 41.848 219.21 41.712C219.562 41.568 219.906 41.428 220.242 41.292C220.578 41.148 220.878 41.02 221.142 40.908L221.13 43.62L218.982 43.968C219.07 44.184 219.138 44.416 219.186 44.664C219.234 44.912 219.258 45.116 219.258 45.276C219.258 45.996 219.046 46.668 218.622 47.292C218.206 47.916 217.578 48.42 216.738 48.804C215.906 49.188 214.874 49.38 213.642 49.38C213.49 49.38 213.286 49.376 213.03 49.368C212.782 49.36 212.578 49.348 212.418 49.332C211.946 49.356 211.622 49.416 211.446 49.512C211.27 49.608 211.182 49.72 211.182 49.848C211.182 50.04 211.362 50.168 211.722 50.232C212.082 50.288 212.626 50.34 213.354 50.388C213.61 50.404 213.966 50.424 214.422 50.448C214.878 50.472 215.382 50.504 215.934 50.544C217.454 50.648 218.586 51.024 219.33 51.672C220.082 52.312 220.458 53.12 220.458 54.096C220.458 55.256 219.906 56.212 218.802 56.964C217.706 57.724 216.05 58.104 213.834 58.104ZM214.398 56.148C215.374 56.148 216.07 56.028 216.486 55.788C216.902 55.548 217.11 55.204 217.11 54.756C217.11 54.38 216.95 54.076 216.63 53.844C216.31 53.604 215.842 53.464 215.226 53.424L212.382 53.232C212.014 53.216 211.686 53.272 211.398 53.4C211.118 53.528 210.898 53.704 210.738 53.928C210.586 54.152 210.51 54.392 210.51 54.648C210.51 55.168 210.826 55.548 211.458 55.788C212.09 56.028 213.07 56.148 214.398 56.148ZM213.738 47.424C214.402 47.424 214.934 47.244 215.334 46.884C215.742 46.516 215.946 46.02 215.946 45.396C215.946 44.748 215.742 44.228 215.334 43.836C214.934 43.444 214.402 43.248 213.738 43.248C213.082 43.248 212.546 43.444 212.13 43.836C211.722 44.228 211.518 44.748 211.518 45.396C211.518 46.012 211.714 46.504 212.106 46.872C212.506 47.24 213.05 47.424 213.738 47.424ZM223.156 54V36.168H226.636V43.38C226.836 43.092 227.088 42.808 227.392 42.528C227.696 42.24 228.076 42 228.532 41.808C228.988 41.616 229.544 41.52 230.2 41.52C230.992 41.52 231.712 41.676 232.36 41.988C233.016 42.292 233.54 42.736 233.932 43.32C234.332 43.904 234.532 44.616 234.532 45.456V54H231.016V45.972C231.016 45.412 230.812 44.984 230.404 44.688C230.004 44.384 229.516 44.232 228.94 44.232C228.564 44.232 228.2 44.3 227.848 44.436C227.496 44.572 227.208 44.78 226.984 45.06C226.768 45.332 226.66 45.672 226.66 46.08V54H223.156ZM249.933 54.24C248.341 54.24 246.957 53.88 245.781 53.16C244.613 52.432 243.709 51.404 243.069 50.076C242.437 48.748 242.121 47.18 242.121 45.372C242.121 43.532 242.453 41.944 243.117 40.608C243.789 39.264 244.725 38.228 245.925 37.5C247.125 36.772 248.525 36.408 250.125 36.408C251.157 36.408 252.097 36.572 252.945 36.9C253.793 37.228 254.529 37.676 255.153 38.244C255.785 38.812 256.277 39.456 256.629 40.176C256.989 40.888 257.185 41.628 257.217 42.396H253.521C253.417 41.844 253.209 41.34 252.897 40.884C252.593 40.428 252.201 40.064 251.721 39.792C251.241 39.512 250.681 39.372 250.041 39.372C249.273 39.372 248.577 39.572 247.953 39.972C247.329 40.364 246.837 40.992 246.477 41.856C246.117 42.72 245.937 43.86 245.937 45.276C245.937 46.42 246.053 47.372 246.285 48.132C246.525 48.892 246.845 49.496 247.245 49.944C247.645 50.384 248.101 50.696 248.613 50.88C249.125 51.064 249.649 51.156 250.185 51.156C250.697 51.156 251.153 51.072 251.553 50.904C251.961 50.728 252.309 50.504 252.597 50.232C252.885 49.96 253.113 49.664 253.281 49.344C253.449 49.016 253.557 48.696 253.605 48.384L253.737 47.328H250.149V44.904L257.409 44.94V54H255.021V51.732C254.725 52.124 254.357 52.516 253.917 52.908C253.485 53.292 252.945 53.612 252.297 53.868C251.657 54.116 250.869 54.24 249.933 54.24ZM263.56 48.6C263.552 49.232 263.652 49.784 263.86 50.256C264.068 50.72 264.368 51.08 264.76 51.336C265.16 51.584 265.64 51.708 266.2 51.708C266.8 51.708 267.324 51.58 267.772 51.324C268.228 51.068 268.544 50.648 268.72 50.064H271.876C271.74 50.944 271.388 51.696 270.82 52.32C270.26 52.944 269.58 53.42 268.78 53.748C267.98 54.076 267.148 54.24 266.284 54.24C265.06 54.24 263.98 53.984 263.044 53.472C262.116 52.952 261.392 52.22 260.872 51.276C260.352 50.332 260.092 49.22 260.092 47.94C260.092 46.7 260.328 45.584 260.8 44.592C261.272 43.592 261.956 42.804 262.852 42.228C263.756 41.644 264.84 41.352 266.104 41.352C267.368 41.352 268.428 41.62 269.284 42.156C270.148 42.684 270.796 43.424 271.228 44.376C271.668 45.32 271.888 46.412 271.888 47.652V48.6H263.56ZM263.548 46.512H268.612C268.612 46.016 268.52 45.56 268.336 45.144C268.152 44.728 267.872 44.4 267.496 44.16C267.128 43.92 266.664 43.8 266.104 43.8C265.56 43.8 265.096 43.932 264.712 44.196C264.336 44.452 264.048 44.788 263.848 45.204C263.648 45.62 263.548 46.056 263.548 46.512ZM274.32 54V41.592H277.764V43.344C277.956 43.04 278.204 42.748 278.508 42.468C278.82 42.18 279.212 41.944 279.684 41.76C280.156 41.576 280.716 41.484 281.364 41.484C282.124 41.484 282.832 41.632 283.488 41.928C284.152 42.224 284.688 42.692 285.096 43.332C285.504 43.964 285.708 44.792 285.708 45.816V54H282.204V46.248C282.204 45.576 282.004 45.072 281.604 44.736C281.204 44.4 280.716 44.232 280.14 44.232C279.756 44.232 279.384 44.3 279.024 44.436C278.672 44.572 278.384 44.776 278.16 45.048C277.936 45.32 277.824 45.656 277.824 46.056V54H274.32ZM292.793 54L299.009 36.648H302.705L308.909 54H305.417L304.001 49.98H297.761L296.309 54H292.793ZM298.541 46.92H303.161L300.869 40.032L298.541 46.92ZM311.514 36.648H315.006V54H311.514V36.648Z" fill="#292929"/>
</g>
<defs>
<filter id="filter0_d_1_225" x="0.3" y="0.3" width="356.4" height="97.4" filterUnits="userSpaceOnUse" color-interpolation-filters="sRGB">
<feFlood flood-opacity="0" result="BackgroundImageFix"/>
<feColorMatrix in="SourceAlpha" type="matrix" values="0 0 0 0 0 0 0 0 0 0 0 0 0 0 0 0 0 0 127 0" result="hardAlpha"/>
<feOffset dy="4"/>
<feGaussianBlur stdDeviation="3.35"/>
<feComposite in2="hardAlpha" operator="out"/>
<feColorMatrix type="matrix" values="0 0 0 0 0 0 0 0 0 0 0 0 0 0 0 0 0 0 0.2 0"/>
<feBlend mode="normal" in2="BackgroundImageFix" result="effect1_dropShadow_1_225"/>
<feBlend mode="normal" in="SourceGraphic" in2="effect1_dropShadow_1_225" result="shape"/>
</filter>
</defs>
</svg>
