<svg width="374" height="401" viewBox="0 0 374 401" fill="none" xmlns="http://www.w3.org/2000/svg">
<g filter="url(#filter0_d_1_231)">
<rect x="4.03369" width="365" height="393" rx="8" fill="white"/>
<path d="M4.03369 299.093H369.034V384.999C369.034 389.418 365.452 392.999 361.034 392.999H12.0337C7.61542 392.999 4.03369 389.418 4.03369 384.999V299.093Z" fill="#FFD7B7"/>
<circle cx="52.1929" cy="344.54" r="18" fill="#F9F9F9"/>
<path d="M87.0248 353.78C85.5048 353.78 84.1928 353.432 83.0888 352.736C81.9848 352.032 81.1368 351.02 80.5448 349.7C79.9528 348.38 79.6568 346.784 79.6568 344.912C79.6568 343.024 79.9568 341.412 80.5568 340.076C81.1648 338.74 82.0288 337.72 83.1488 337.016C84.2688 336.304 85.5928 335.948 87.1208 335.948C87.9928 335.948 88.8128 336.1 89.5808 336.404C90.3488 336.708 91.0288 337.124 91.6208 337.652C92.2128 338.172 92.6848 338.768 93.0368 339.44C93.3968 340.112 93.6008 340.812 93.6488 341.54H91.2728C91.1608 340.9 90.9128 340.304 90.5288 339.752C90.1448 339.2 89.6568 338.756 89.0648 338.42C88.4808 338.084 87.8208 337.916 87.0848 337.916C86.0848 337.916 85.2048 338.164 84.4448 338.66C83.6928 339.148 83.1048 339.904 82.6808 340.928C82.2648 341.952 82.0568 343.264 82.0568 344.864C82.0568 346.096 82.1848 347.152 82.4408 348.032C82.6968 348.912 83.0528 349.628 83.5088 350.18C83.9728 350.724 84.5128 351.128 85.1288 351.392C85.7528 351.648 86.4248 351.776 87.1448 351.776C87.8728 351.776 88.5048 351.648 89.0408 351.392C89.5848 351.136 90.0368 350.808 90.3968 350.408C90.7568 350 91.0328 349.564 91.2248 349.1C91.4248 348.628 91.5328 348.176 91.5488 347.744L91.6208 346.208H87.3968V344.576L93.9248 344.588V353.54H92.2568V350.9C91.9528 351.396 91.5688 351.864 91.1048 352.304C90.6408 352.744 90.0728 353.1 89.4008 353.372C88.7368 353.644 87.9448 353.78 87.0248 353.78ZM102.73 353.78C101.586 353.78 100.586 353.536 99.7304 353.048C98.8744 352.552 98.2104 351.828 97.7384 350.876C97.2664 349.924 97.0304 348.76 97.0304 347.384C97.0304 346.088 97.2504 344.952 97.6904 343.976C98.1304 343 98.7744 342.244 99.6224 341.708C100.478 341.164 101.514 340.892 102.73 340.892C103.874 340.892 104.866 341.144 105.706 341.648C106.554 342.144 107.21 342.876 107.674 343.844C108.138 344.812 108.37 345.992 108.37 347.384C108.37 348.648 108.154 349.76 107.722 350.72C107.298 351.68 106.666 352.432 105.826 352.976C104.994 353.512 103.962 353.78 102.73 353.78ZM102.73 352.028C103.474 352.028 104.102 351.84 104.614 351.464C105.126 351.088 105.514 350.548 105.778 349.844C106.042 349.14 106.174 348.304 106.174 347.336C106.174 346.448 106.058 345.652 105.826 344.948C105.594 344.236 105.222 343.672 104.71 343.256C104.206 342.84 103.546 342.632 102.73 342.632C101.978 342.632 101.342 342.82 100.822 343.196C100.302 343.564 99.9064 344.1 99.6344 344.804C99.3704 345.508 99.2384 346.352 99.2384 347.336C99.2384 348.208 99.3584 349 99.5984 349.712C99.8384 350.424 100.214 350.988 100.726 351.404C101.238 351.82 101.906 352.028 102.73 352.028ZM111.275 353.54V341.132H113.387V343.52C113.595 342.928 113.887 342.44 114.263 342.056C114.639 341.664 115.067 341.372 115.547 341.18C116.035 340.988 116.539 340.892 117.059 340.892C117.243 340.892 117.423 340.904 117.599 340.928C117.775 340.952 117.911 340.992 118.007 341.048V343.196C117.887 343.14 117.731 343.104 117.539 343.088C117.355 343.064 117.199 343.052 117.071 343.052C116.575 343.02 116.111 343.052 115.679 343.148C115.247 343.236 114.867 343.392 114.539 343.616C114.211 343.84 113.951 344.136 113.759 344.504C113.575 344.864 113.483 345.304 113.483 345.824V353.54H111.275ZM124.798 353.78C123.19 353.78 121.914 353.228 120.97 352.124C120.026 351.02 119.554 349.408 119.554 347.288C119.554 346 119.742 344.876 120.118 343.916C120.502 342.956 121.07 342.212 121.822 341.684C122.574 341.156 123.51 340.892 124.63 340.892C125.222 340.892 125.746 340.968 126.202 341.12C126.666 341.272 127.066 341.464 127.402 341.696C127.738 341.928 128.01 342.168 128.218 342.416C128.434 342.664 128.594 342.892 128.698 343.1V335.708H130.93V353.54H129.238L128.998 350.996C128.918 351.236 128.79 351.516 128.614 351.836C128.438 352.148 128.19 352.456 127.87 352.76C127.55 353.056 127.138 353.3 126.634 353.492C126.138 353.684 125.526 353.78 124.798 353.78ZM125.194 352.076C126.45 352.076 127.346 351.696 127.882 350.936C128.426 350.168 128.698 348.916 128.698 347.18C128.69 346.212 128.566 345.388 128.326 344.708C128.094 344.028 127.726 343.512 127.222 343.16C126.726 342.8 126.066 342.62 125.242 342.62C124.218 342.62 123.386 342.984 122.746 343.712C122.106 344.44 121.786 345.596 121.786 347.18C121.786 348.732 122.074 349.936 122.65 350.792C123.234 351.648 124.082 352.076 125.194 352.076ZM139.527 353.78C138.383 353.78 137.383 353.536 136.527 353.048C135.671 352.552 135.007 351.828 134.535 350.876C134.063 349.924 133.827 348.76 133.827 347.384C133.827 346.088 134.047 344.952 134.487 343.976C134.927 343 135.571 342.244 136.419 341.708C137.275 341.164 138.311 340.892 139.527 340.892C140.671 340.892 141.663 341.144 142.503 341.648C143.351 342.144 144.007 342.876 144.471 343.844C144.935 344.812 145.167 345.992 145.167 347.384C145.167 348.648 144.951 349.76 144.519 350.72C144.095 351.68 143.463 352.432 142.623 352.976C141.791 353.512 140.759 353.78 139.527 353.78ZM139.527 352.028C140.271 352.028 140.899 351.84 141.411 351.464C141.923 351.088 142.311 350.548 142.575 349.844C142.839 349.14 142.971 348.304 142.971 347.336C142.971 346.448 142.855 345.652 142.623 344.948C142.391 344.236 142.019 343.672 141.507 343.256C141.003 342.84 140.343 342.632 139.527 342.632C138.775 342.632 138.139 342.82 137.619 343.196C137.099 343.564 136.703 344.1 136.431 344.804C136.167 345.508 136.035 346.352 136.035 347.336C136.035 348.208 136.155 349 136.395 349.712C136.635 350.424 137.011 350.988 137.523 351.404C138.035 351.82 138.703 352.028 139.527 352.028ZM148.072 353.54V341.132H150.22V342.932C150.42 342.588 150.696 342.264 151.048 341.96C151.408 341.656 151.84 341.412 152.344 341.228C152.856 341.044 153.444 340.952 154.108 340.952C154.892 340.952 155.612 341.108 156.268 341.42C156.932 341.732 157.46 342.22 157.852 342.884C158.252 343.54 158.452 344.388 158.452 345.428V353.54H156.232V345.644C156.232 344.676 155.976 343.96 155.464 343.496C154.96 343.024 154.304 342.788 153.496 342.788C152.936 342.788 152.412 342.88 151.924 343.064C151.436 343.24 151.04 343.512 150.736 343.88C150.432 344.24 150.28 344.696 150.28 345.248V353.54H148.072ZM180.319 353.54H177.967L174.799 346.064H170.131V353.54H167.911V336.188H174.631C175.879 336.188 176.923 336.38 177.763 336.764C178.603 337.14 179.231 337.684 179.647 338.396C180.063 339.1 180.271 339.944 180.271 340.928C180.271 341.872 180.103 342.656 179.767 343.28C179.439 343.904 179.019 344.408 178.507 344.792C177.995 345.168 177.463 345.46 176.911 345.668L180.319 353.54ZM173.911 344.228C175.215 344.228 176.223 343.964 176.935 343.436C177.647 342.9 178.003 342.108 178.003 341.06C178.003 340.036 177.683 339.272 177.043 338.768C176.411 338.256 175.543 338 174.439 338H170.131V344.228H173.911ZM186.894 353.78C186.094 353.78 185.386 353.64 184.77 353.36C184.154 353.072 183.67 352.66 183.318 352.124C182.974 351.588 182.802 350.94 182.802 350.18C182.802 348.804 183.282 347.78 184.242 347.108C185.202 346.436 186.742 346.076 188.862 346.028L191.082 345.968V344.996C191.082 344.236 190.854 343.636 190.398 343.196C189.942 342.748 189.234 342.524 188.274 342.524C187.562 342.532 186.934 342.7 186.39 343.028C185.854 343.356 185.506 343.892 185.346 344.636H183.39C183.438 343.828 183.666 343.148 184.074 342.596C184.482 342.036 185.05 341.612 185.778 341.324C186.514 341.036 187.382 340.892 188.382 340.892C189.462 340.892 190.358 341.044 191.07 341.348C191.79 341.652 192.326 342.1 192.678 342.692C193.038 343.284 193.218 344.012 193.218 344.876V353.54H191.322L191.166 351.212C190.686 352.18 190.074 352.852 189.33 353.228C188.594 353.596 187.782 353.78 186.894 353.78ZM187.566 352.184C187.982 352.184 188.394 352.108 188.802 351.956C189.218 351.804 189.598 351.6 189.942 351.344C190.286 351.08 190.558 350.788 190.758 350.468C190.966 350.14 191.074 349.804 191.082 349.46V347.336L189.234 347.372C188.29 347.388 187.498 347.484 186.858 347.66C186.226 347.836 185.75 348.112 185.43 348.488C185.118 348.864 184.962 349.356 184.962 349.964C184.962 350.66 185.202 351.204 185.682 351.596C186.17 351.988 186.798 352.184 187.566 352.184ZM197.009 353.54V341.132H199.145V342.932C199.489 342.388 199.961 341.912 200.561 341.504C201.161 341.096 201.941 340.892 202.901 340.892C203.349 340.892 203.805 340.968 204.269 341.12C204.741 341.272 205.173 341.5 205.565 341.804C205.957 342.108 206.261 342.48 206.477 342.92C206.861 342.312 207.381 341.824 208.037 341.456C208.693 341.08 209.433 340.892 210.257 340.892C210.689 340.892 211.141 340.96 211.613 341.096C212.085 341.224 212.521 341.456 212.921 341.792C213.329 342.12 213.661 342.58 213.917 343.172C214.173 343.756 214.301 344.508 214.301 345.428V353.54H212.069V345.644C212.069 344.892 211.949 344.312 211.709 343.904C211.469 343.488 211.153 343.196 210.761 343.028C210.377 342.86 209.965 342.776 209.525 342.776C209.141 342.776 208.733 342.852 208.301 343.004C207.869 343.156 207.501 343.412 207.197 343.772C206.893 344.132 206.741 344.624 206.741 345.248V353.54H204.533V344.996C204.533 344.508 204.401 344.1 204.137 343.772C203.881 343.444 203.557 343.196 203.165 343.028C202.781 342.86 202.397 342.776 202.013 342.776C201.589 342.776 201.161 342.86 200.729 343.028C200.305 343.196 199.945 343.464 199.649 343.832C199.361 344.192 199.217 344.664 199.217 345.248V353.54H197.009ZM221.991 353.78C221.127 353.78 220.323 353.648 219.579 353.384C218.843 353.112 218.231 352.692 217.743 352.124C217.255 351.548 216.947 350.816 216.819 349.928H218.835C218.947 350.416 219.147 350.824 219.435 351.152C219.731 351.472 220.099 351.716 220.539 351.884C220.979 352.044 221.459 352.124 221.979 352.124C222.811 352.124 223.483 351.968 223.995 351.656C224.507 351.344 224.763 350.864 224.763 350.216C224.763 349.76 224.627 349.396 224.355 349.124C224.091 348.844 223.679 348.64 223.119 348.512L220.551 347.876C219.551 347.636 218.751 347.26 218.151 346.748C217.551 346.236 217.251 345.52 217.251 344.6C217.243 343.872 217.415 343.232 217.767 342.68C218.119 342.128 218.647 341.692 219.351 341.372C220.055 341.052 220.931 340.892 221.979 340.892C223.323 340.892 224.407 341.196 225.231 341.804C226.063 342.404 226.495 343.288 226.527 344.456H224.571C224.491 343.864 224.223 343.396 223.767 343.052C223.319 342.7 222.715 342.524 221.955 342.524C221.163 342.524 220.519 342.684 220.023 343.004C219.527 343.316 219.279 343.804 219.279 344.468C219.279 344.908 219.455 345.256 219.807 345.512C220.159 345.76 220.679 345.968 221.367 346.136L223.851 346.76C224.427 346.912 224.899 347.112 225.267 347.36C225.643 347.608 225.939 347.884 226.155 348.188C226.379 348.492 226.535 348.812 226.623 349.148C226.719 349.476 226.767 349.792 226.767 350.096C226.767 350.856 226.575 351.512 226.191 352.064C225.815 352.608 225.271 353.032 224.559 353.336C223.855 353.632 222.999 353.78 221.991 353.78ZM233.348 353.78C232.548 353.78 231.84 353.64 231.224 353.36C230.608 353.072 230.124 352.66 229.772 352.124C229.428 351.588 229.256 350.94 229.256 350.18C229.256 348.804 229.736 347.78 230.696 347.108C231.656 346.436 233.196 346.076 235.316 346.028L237.536 345.968V344.996C237.536 344.236 237.308 343.636 236.852 343.196C236.396 342.748 235.688 342.524 234.728 342.524C234.016 342.532 233.388 342.7 232.844 343.028C232.308 343.356 231.96 343.892 231.8 344.636H229.844C229.892 343.828 230.12 343.148 230.528 342.596C230.936 342.036 231.504 341.612 232.232 341.324C232.968 341.036 233.836 340.892 234.836 340.892C235.916 340.892 236.812 341.044 237.524 341.348C238.244 341.652 238.78 342.1 239.132 342.692C239.492 343.284 239.672 344.012 239.672 344.876V353.54H237.776L237.62 351.212C237.14 352.18 236.528 352.852 235.784 353.228C235.048 353.596 234.236 353.78 233.348 353.78ZM234.02 352.184C234.436 352.184 234.848 352.108 235.256 351.956C235.672 351.804 236.052 351.6 236.396 351.344C236.74 351.08 237.012 350.788 237.212 350.468C237.42 350.14 237.528 349.804 237.536 349.46V347.336L235.688 347.372C234.744 347.388 233.952 347.484 233.312 347.66C232.68 347.836 232.204 348.112 231.884 348.488C231.572 348.864 231.416 349.356 231.416 349.964C231.416 350.66 231.656 351.204 232.136 351.596C232.624 351.988 233.252 352.184 234.02 352.184ZM244.288 357.5C243.56 357.5 243.06 357.448 242.788 357.344C242.516 357.24 242.38 357.188 242.38 357.188V355.748L243.64 355.772C244.104 355.788 244.488 355.756 244.792 355.676C245.096 355.596 245.34 355.488 245.524 355.352C245.708 355.216 245.848 355.064 245.944 354.896C246.048 354.728 246.132 354.568 246.196 354.416L246.628 353.24L241.78 341.132H244.024L247.684 350.708L251.32 341.132H253.492L248.26 354.476C247.94 355.26 247.58 355.872 247.18 356.312C246.788 356.752 246.348 357.06 245.86 357.236C245.38 357.412 244.856 357.5 244.288 357.5Z" fill="black"/>
</g>
<defs>
<filter id="filter0_d_1_231" x="0.0336914" y="0" width="373" height="401" filterUnits="userSpaceOnUse" color-interpolation-filters="sRGB">
<feFlood flood-opacity="0" result="BackgroundImageFix"/>
<feColorMatrix in="SourceAlpha" type="matrix" values="0 0 0 0 0 0 0 0 0 0 0 0 0 0 0 0 0 0 127 0" result="hardAlpha"/>
<feOffset dy="4"/>
<feGaussianBlur stdDeviation="2"/>
<feComposite in2="hardAlpha" operator="out"/>
<feColorMatrix type="matrix" values="0 0 0 0 0 0 0 0 0 0 0 0 0 0 0 0 0 0 0.25 0"/>
<feBlend mode="normal" in2="BackgroundImageFix" result="effect1_dropShadow_1_231"/>
<feBlend mode="normal" in="SourceGraphic" in2="effect1_dropShadow_1_231" result="shape"/>
</filter>
</defs>
</svg>
