<svg width="35" height="30" viewBox="0 0 35 30" fill="none" xmlns="http://www.w3.org/2000/svg">
<path d="M9.87119 0C7.57884 0 5.28657 0.897862 3.5569 2.70805C0.0974569 6.32835 0.101918 12.1296 3.5569 15.7523L16.762 29.6009C16.8822 29.727 17.0267 29.8274 17.1869 29.896C17.347 29.9646 17.5195 30 17.6937 30C17.8679 30 18.0404 29.9646 18.2005 29.896C18.3607 29.8274 18.5052 29.727 18.6254 29.6009C23.0304 24.9909 27.4389 20.3757 31.8439 15.7657C35.3033 12.1453 35.3033 6.34181 31.8439 2.72146C28.3845 -0.898892 22.6747 -0.898969 19.2153 2.72146L17.7004 4.28998L16.1855 2.70805C14.4558 0.897871 12.1635 0 9.87119 0ZM9.87119 2.52036C11.4714 2.52036 13.0824 3.17977 14.3355 4.49107L16.7754 7.05165C16.8956 7.17777 17.0402 7.2782 17.2003 7.3468C17.3605 7.4154 17.5329 7.45075 17.7071 7.45075C17.8813 7.45075 18.0538 7.4154 18.2139 7.3468C18.3741 7.2782 18.5186 7.17777 18.6388 7.05165L21.0654 4.50448C23.5714 1.88182 27.4745 1.88188 29.9805 4.50448C32.4864 7.12707 32.4864 11.3735 29.9805 13.9961C25.8877 18.2793 21.7931 22.556 17.7004 26.8392L5.42033 13.9827C2.91567 11.3564 2.91434 7.1136 5.42033 4.49107C6.67331 3.17977 8.27098 2.52036 9.87119 2.52036Z" fill="#FF0000"/>
</svg>
