<svg width="25" height="30" viewBox="0 0 25 30" fill="none" xmlns="http://www.w3.org/2000/svg">
<path fill-rule="evenodd" clip-rule="evenodd" d="M2.88257 12.985C2.3456 13.5118 1.47037 13.5118 0.932175 12.985C0.395208 12.4582 0.395208 11.5996 0.932175 11.0716L11.51 0.693188C11.7631 0.435245 12.1174 0.27417 12.5087 0.27417C12.9 0.27417 13.2543 0.435233 13.5074 0.693188L24.0874 11.0725C24.6244 11.5993 24.6244 12.4579 24.0874 12.9859C23.5505 13.5127 22.6752 13.5127 22.137 12.9859L13.8885 4.89388V21.8081C13.8885 22.5553 13.2725 23.1596 12.5109 23.1596C11.7492 23.1596 11.1333 22.5553 11.1333 21.8081V4.89295L2.88257 12.985ZM6.62162 29.7259C5.85997 29.7259 5.2403 29.1216 5.2403 28.3744C5.2403 27.6272 5.85627 27.0193 6.62162 27.0193H18.3969C19.1585 27.0193 19.7745 27.6236 19.7745 28.3744C19.7745 29.1216 19.1548 29.7259 18.3969 29.7259H6.62162Z" fill="white"/>
</svg>
